<svg width="30" height="30" viewBox="0 0 30 30" fill="none" xmlns="http://www.w3.org/2000/svg">
<circle cx="15" cy="15" r="15" fill="#9DA7BB"/>
<g clip-path="url(#clip0)">
<path d="M22.753 8.5896C22.5575 8.35059 22.2647 8.21887 21.9287 8.21887C21.7458 8.21887 21.5523 8.25745 21.3534 8.33337L7.80959 13.5034C7.09085 13.7777 6.99404 14.1893 7.00027 14.4104C7.00649 14.6313 7.12649 15.0368 7.85964 15.27C7.86404 15.2715 7.86843 15.2727 7.87282 15.274L9.77223 15.8175L19.0227 11.0915C19.2532 10.9736 19.5356 11.0652 19.6534 11.2958C19.7459 11.4769 19.7088 11.6898 19.577 11.8299L19.5774 11.8303L14.4341 17.2953L14.2874 17.8899L16.124 19.3689L18.6692 21.4183C18.6714 21.42 18.6736 21.4218 18.6759 21.4235C18.9559 21.6408 19.2618 21.7556 19.5605 21.7557C20.1443 21.7557 20.609 21.3237 20.7444 20.6552L22.9635 9.69775C23.0525 9.25805 22.9777 8.86438 22.753 8.5896Z" fill="#F1F2F6"/>
<path d="M13.5535 16.9511C13.5721 16.8753 13.6097 16.803 13.667 16.7421L17.0419 13.1561L10.7793 16.3555L12.2013 20.4223C12.2823 20.654 12.403 20.8513 12.5521 21.0057L13.5535 16.9511Z" fill="#F1F2F6"/>
<path d="M13.425 21.3823C13.7631 21.3795 14.0952 21.2369 14.3862 20.9689L15.4266 20.0109L14.0394 18.894L13.425 21.3823Z" fill="#F1F2F6"/>
</g>
<defs>
<clipPath id="clip0">
<rect width="16" height="16" fill="white" transform="translate(7 7)"/>
</clipPath>
</defs>
</svg>
