<svg width="130" height="26" viewBox="0 0 130 26" fill="none" xmlns="http://www.w3.org/2000/svg">
<rect width="130" height="26" rx="2" fill="#FFE600"/>
<path d="M27.5625 19C29.9609 19 31.4062 17.7969 31.4062 15.8125C31.4062 14.3125 30.375 13.2266 28.8438 13.0547V12.9922C29.9688 12.8047 30.8516 11.7344 30.8516 10.5391C30.8516 8.83594 29.5391 7.72656 27.5391 7.72656H23.0391V19H27.5625ZM24.7891 9.15625H27.1172C28.3828 9.15625 29.1016 9.73438 29.1016 10.7812C29.1016 11.8984 28.2656 12.5234 26.75 12.5234H24.7891V9.15625ZM24.7891 17.5703V13.8594H27.1016C28.7578 13.8594 29.6172 14.4844 29.6172 15.7031C29.6172 16.9219 28.7812 17.5703 27.2031 17.5703H24.7891ZM39.7578 10.7812H38.0703V15.5703C38.0703 16.8516 37.3359 17.6953 36.1172 17.6953C34.9531 17.6953 34.3594 17.0234 34.3594 15.7734V10.7812H32.6719V16.1016C32.6719 17.9844 33.7656 19.1484 35.5547 19.1484C36.8125 19.1484 37.6484 18.5938 38.1016 17.6094H38.1406V19H39.7578V10.7812ZM44.5078 15.9766L46.3203 19H48.1797L45.5156 14.8438L48.2109 10.7812H46.3516L44.5781 13.7578H44.5469L42.75 10.7812H40.8594L43.5312 14.8984L40.8203 19H42.6484L44.4688 15.9766H44.5078ZM52.6016 22.0938C54.9453 22.0938 56.4609 20.8125 56.4609 18.8516V10.7812H54.8203V12.1875H54.7891C54.2891 11.2344 53.3359 10.6484 52.1719 10.6484C50.0625 10.6484 48.7188 12.2734 48.7188 14.8594C48.7188 17.4219 50.0703 19.0312 52.1328 19.0312C53.3047 19.0312 54.2734 18.4453 54.7344 17.5547H54.7656V18.9062C54.7656 20.0312 53.9844 20.7812 52.6641 20.7812C51.7031 20.7812 50.9531 20.3281 50.7109 19.6406H49.0156C49.2266 21.0625 50.6641 22.0938 52.6016 22.0938ZM52.5859 17.6328C51.2891 17.6328 50.4453 16.5859 50.4453 14.8672C50.4453 13.1562 51.2891 12.0703 52.5859 12.0703C53.9062 12.0703 54.7734 13.1797 54.7734 14.8672C54.7734 16.5625 53.9062 17.6328 52.5859 17.6328ZM60.5391 19.1406C61.6172 19.1406 62.6562 18.5625 63.1328 17.6484H63.1719V19H64.7891V13.3359C64.7891 11.6875 63.5156 10.6328 61.5234 10.6328C59.4922 10.6328 58.2266 11.7266 58.1328 13.2109H59.7266C59.875 12.4766 60.4844 12.0078 61.4609 12.0078C62.4922 12.0078 63.1094 12.5547 63.1094 13.4688V14.1016L60.8594 14.2344C58.9062 14.3438 57.8047 15.2266 57.8047 16.6641C57.8047 18.1406 58.9297 19.1406 60.5391 19.1406ZM61.0078 17.8047C60.1016 17.8047 59.5078 17.3359 59.5078 16.6172C59.5078 15.9141 60.0781 15.4688 61.0859 15.3984L63.1094 15.2734V15.9219C63.1094 16.9922 62.1875 17.8047 61.0078 17.8047ZM66.4922 19H68.1797V7.72656H66.4922V19ZM70.4062 8.83594V10.7812H69.2109V12.1172H70.4062V16.8359C70.4062 18.4219 71.0547 19.0547 72.7188 19.0547C73.0938 19.0547 73.4688 19.0234 73.6562 18.9766V17.6406C73.5469 17.6641 73.2734 17.6797 73.1016 17.6797C72.4141 17.6797 72.1016 17.3594 72.1016 16.6484V12.1172H73.6641V10.7812H72.1016V8.83594H70.4062ZM80.2969 16.5859C80.0703 17.3047 79.3594 17.7891 78.3984 17.7891C77.0469 17.7891 76.1875 16.8438 76.1875 15.4141V15.3125H81.9922V14.7344C81.9922 12.2422 80.5703 10.6328 78.2891 10.6328C75.9688 10.6328 74.4844 12.3516 74.4844 14.9297C74.4844 17.5234 75.9453 19.1562 78.3594 19.1562C80.2422 19.1562 81.6641 18.0859 81.8984 16.5859H80.2969ZM78.2891 11.9922C79.4688 11.9922 80.2656 12.875 80.3047 14.1328H76.1953C76.2812 12.8906 77.1094 11.9922 78.2891 11.9922ZM83.3047 19H84.9922V14.0781C84.9922 12.9141 85.6641 12.1875 86.75 12.1875C87.0781 12.1875 87.375 12.2266 87.5078 12.2812V10.7109C87.3828 10.6875 87.1719 10.6484 86.9297 10.6484C85.9609 10.6484 85.2266 11.2188 84.9531 12.1797H84.9141V10.7812H83.3047V19ZM89.4531 9.45312C89.9922 9.45312 90.4219 9.01562 90.4219 8.48438C90.4219 7.94531 89.9922 7.51562 89.4531 7.51562C88.9141 7.51562 88.4766 7.94531 88.4766 8.48438C88.4766 9.01562 88.9141 9.45312 89.4531 9.45312ZM88.6094 19H90.2969V10.7812H88.6094V19ZM92.8438 22.0625C94.5469 22.0625 95.3594 21.4219 96.0625 19.4297L99.1406 10.7812H97.3594L95.2812 17.4688H95.25L93.1719 10.7812H91.3438L94.3125 19.0078C94.3125 19.0156 94.1641 19.5 94.1641 19.5156C93.9062 20.3594 93.4844 20.6875 92.7031 20.6875C92.5625 20.6875 92.2812 20.6875 92.1562 20.6562V22.0234C92.2812 22.0469 92.7031 22.0625 92.8438 22.0625ZM102.367 19.1406C103.445 19.1406 104.484 18.5625 104.961 17.6484H105V19H106.617V13.3359C106.617 11.6875 105.344 10.6328 103.352 10.6328C101.32 10.6328 100.055 11.7266 99.9609 13.2109H101.555C101.703 12.4766 102.312 12.0078 103.289 12.0078C104.32 12.0078 104.938 12.5547 104.938 13.4688V14.1016L102.688 14.2344C100.734 14.3438 99.6328 15.2266 99.6328 16.6641C99.6328 18.1406 100.758 19.1406 102.367 19.1406ZM102.836 17.8047C101.93 17.8047 101.336 17.3359 101.336 16.6172C101.336 15.9141 101.906 15.4688 102.914 15.3984L104.938 15.2734V15.9219C104.938 16.9922 104.016 17.8047 102.836 17.8047Z" fill="white"/>
</svg>
