<svg width="98" height="46" viewBox="0 0 98 46" fill="none" xmlns="http://www.w3.org/2000/svg">
<path d="M8.33904 10.262C8.33904 12.1894 6.99742 13.7023 4.37612 13.7023H2.53914V16.5623H0.433838V6.75952H4.39676C6.87358 6.75952 8.33904 8.33459 8.33904 10.262ZM6.2131 10.262C6.2131 9.433 5.61453 8.58329 4.47932 8.58329H2.53914V11.8578H4.68572C5.75901 11.8785 6.2131 11.0702 6.2131 10.262Z" fill="#536DFD"/>
<path d="M9.59814 6.75952H13.6436C15.0884 6.75952 16.3062 7.19474 17.2144 8.003C18.2258 8.87343 18.7418 10.1584 18.7418 11.6713C18.7418 13.1842 18.1845 14.4898 17.2144 15.3602C16.3269 16.1478 15.0678 16.5623 13.6436 16.5623H9.59814V6.75952ZM13.6436 14.7385C14.9852 14.7385 16.5952 14.2618 16.5952 11.6713C16.5952 9.08068 14.9646 8.60401 13.6436 8.60401H11.7241V14.7385H13.6436Z" fill="#536DFD"/>
<path d="M28.4423 10.262C28.4423 12.1894 27.1007 13.7023 24.4794 13.7023H22.6424V16.5623H20.5371V6.75952H24.5C26.9562 6.75952 28.4423 8.33459 28.4423 10.262ZM26.3164 10.262C26.3164 9.433 25.7178 8.58329 24.5826 8.58329H22.6424V11.8578H24.789C25.8623 11.8785 26.3164 11.0702 26.3164 10.262Z" fill="#536DFD"/>
<path d="M10.2582 40.7478C12.9827 40.7478 14.4688 39.4836 14.4688 38.1986C14.4688 36.3749 12.0332 35.9189 9.37066 35.4423C6.50167 34.9656 0.309603 33.9086 0.309603 28.4166C0.309603 22.966 5.34581 21.4739 9.37066 21.4739C13.3749 21.4739 15.893 22.6966 18.3904 24.5411L15.6453 28.313C13.6845 26.9037 11.3934 25.9504 9.18489 25.9504C7.74008 25.9504 5.24261 26.3856 5.24261 28.2094C5.24261 29.8466 7.71944 30.2197 9.76282 30.6549C13.4781 31.4424 19.3812 31.9191 19.3812 38.0536C19.3812 42.8202 15.6866 45.1828 10.2995 45.1828C5.36645 45.1828 2.1053 43.4213 0 41.5975L2.62131 37.8049C4.29316 39.2142 7.63688 40.7478 10.2582 40.7478Z" fill="#536DFD"/>
<path d="M28.6283 38.6129C28.6283 39.5455 28.6696 41.1828 30.7543 41.1828C31.2909 41.1828 31.6625 41.1413 31.9514 41.1206V45.079C31.3941 45.1412 30.5066 45.2034 29.8668 45.2034C26.2341 45.2034 24.0256 44.5402 24.0256 40.9134V31.3386H21.9409V27.2351H24.0256V22.6135H28.649V27.2351H32.0753V31.3386H28.649V38.6129H28.6283Z" fill="#536DFD"/>
<path d="M61.9415 37.1419V44.7685H57.2769V27.5049H61.9415V29.8053C63.696 27.4842 66.6062 27.1733 67.824 27.194V31.7742C66.6888 31.6913 61.9415 31.8985 61.9415 37.1419Z" fill="#536DFD"/>
<path d="M98.0001 34.572V44.7685H93.2735V34.572C93.2735 31.8986 91.7462 31.0903 89.9298 31.0903C88.6501 31.0903 86.6893 31.8778 86.648 35.173V44.7685H81.9214V34.572C81.9214 31.8986 80.3528 31.0903 78.619 31.0903C77.1742 31.0903 75.3166 31.8778 75.3166 35.629L75.2753 44.7478H70.6106V27.4842H75.2753V29.0593C76.4724 28.0023 78.3919 27.1733 79.7955 27.1733C82.4168 27.1733 84.1299 28.0438 85.327 29.5359C86.6067 28.0852 88.5469 27.1733 90.8586 27.1733C95.8123 27.1941 98.0001 30.0748 98.0001 34.572Z" fill="#536DFD"/>
<path d="M50.672 29.7427L47.8443 33.0587C48.5047 33.8877 48.8969 34.9653 48.8969 36.1674C48.8969 38.9652 46.8329 41.0998 44.1703 41.0998C41.4871 41.0998 39.4437 39.0274 39.4437 36.1674C39.4437 33.4524 41.5077 31.3385 44.1084 31.2971L45.0165 27.2351C44.7276 27.2143 44.4593 27.1936 44.1703 27.1936C39.0515 27.1936 34.8616 31.2349 34.8616 36.1674C34.8616 41.162 39.0515 45.1618 44.1703 45.1618C49.2891 45.1618 53.5409 41.1413 53.5409 36.1674C53.5409 33.6597 52.4264 31.38 50.672 29.7427Z" fill="#536DFD"/>
<path d="M34.4076 21.2251C36.7193 21.2251 36.2446 21.2458 46.7711 21.2458C47.1839 21.2458 47.3696 20.707 47.122 20.2718C47.122 20.2718 42.9113 17.6605 41.4872 16.79C41.322 16.6864 41.4253 16.4584 41.5285 16.1683L47.349 0.914972C47.6586 0.127436 47.1632 -0.34923 46.7091 0.313958C43.4686 5.01845 36.8431 14.4067 33.5407 19.0905C32.6119 20.4168 33.7058 21.2251 34.4076 21.2251Z" fill="#FFD401"/>
<path d="M56.8022 15.0075C54.4905 15.0075 54.9652 14.9868 44.4181 14.9868C44.0053 14.9868 43.8195 15.5257 44.0672 15.9609C44.0672 15.9609 48.2778 18.5722 49.702 19.4426C49.8671 19.5462 49.7639 19.7742 49.6607 20.0643L43.8401 35.3177C43.5305 36.1052 44.0259 36.5819 44.48 35.9187C47.7205 31.2142 54.3254 21.8259 57.6484 17.1422C58.5979 15.8158 57.504 15.0075 56.8022 15.0075Z" fill="#FFD401"/>
<path d="M52.7565 17.6812L45.6976 15.5673C45.388 15.3393 44.6243 15.8367 44.8513 16.2304L49.9495 19.4635C50.032 19.6086 49.4954 20.9142 49.3922 21.1836L44.0876 34.8204C43.8193 35.5251 44.2115 35.9396 44.5624 35.3178L52.9836 19.1733C53.5615 18.1164 53.2725 18.0335 52.7565 17.6812Z" fill="#FDB917"/>
<path d="M39.031 18.3442L45.2849 20.7068C45.5945 20.9347 46.3582 20.4374 46.1312 20.0436L41.0124 16.7898C40.9299 16.6448 41.4665 15.3391 41.5697 15.0697L46.8949 1.43288C47.1632 0.728245 46.771 0.313752 46.4202 0.935491L38.8039 16.852C38.226 17.909 38.515 17.9919 39.031 18.3442Z" fill="#FDB917"/>
</svg>
