<svg width="30" height="30" viewBox="0 0 30 30" fill="none" xmlns="http://www.w3.org/2000/svg">
<circle opacity="0.2" cx="15" cy="15" r="15" fill="#9DA7BB"/>
<g clip-path="url(#clip0)">
<path d="M18.9994 7.00333L16.9246 7C14.5936 7 13.0872 8.5455 13.0872 10.9376V12.7531H11.0011C10.8208 12.7531 10.6748 12.8992 10.6748 13.0795V15.7099C10.6748 15.8902 10.8209 16.0362 11.0011 16.0362H13.0872V22.6736C13.0872 22.8539 13.2332 22.9998 13.4134 22.9998H16.1353C16.3155 22.9998 16.4615 22.8537 16.4615 22.6736V16.0362H18.9007C19.0809 16.0362 19.2269 15.8902 19.2269 15.7099L19.2279 13.0795C19.2279 12.9929 19.1935 12.91 19.1324 12.8488C19.0713 12.7875 18.9881 12.7531 18.9015 12.7531H16.4615V11.2141C16.4615 10.4743 16.6378 10.0988 17.6014 10.0988L18.9991 10.0983C19.1792 10.0983 19.3251 9.95219 19.3251 9.77209V7.32957C19.3251 7.14964 19.1793 7.00366 18.9994 7.00333Z" fill="#9DA7BB"/>
</g>
<defs>
<clipPath id="clip0">
<rect width="16" height="15.9998" fill="white" transform="translate(7 7)"/>
</clipPath>
</defs>
</svg>
