<svg width="130" height="26" viewBox="0 0 130 26" fill="none" xmlns="http://www.w3.org/2000/svg">
<rect width="130" height="26" rx="2" fill="#EB3B3B"/>
<path d="M47.5625 19C49.9609 19 51.4062 17.7969 51.4062 15.8125C51.4062 14.3125 50.375 13.2266 48.8438 13.0547V12.9922C49.9688 12.8047 50.8516 11.7344 50.8516 10.5391C50.8516 8.83594 49.5391 7.72656 47.5391 7.72656H43.0391V19H47.5625ZM44.7891 9.15625H47.1172C48.3828 9.15625 49.1016 9.73438 49.1016 10.7812C49.1016 11.8984 48.2656 12.5234 46.75 12.5234H44.7891V9.15625ZM44.7891 17.5703V13.8594H47.1016C48.7578 13.8594 49.6172 14.4844 49.6172 15.7031C49.6172 16.9219 48.7812 17.5703 47.2031 17.5703H44.7891ZM53.6094 9.45312C54.1484 9.45312 54.5781 9.01562 54.5781 8.48438C54.5781 7.94531 54.1484 7.51562 53.6094 7.51562C53.0703 7.51562 52.6328 7.94531 52.6328 8.48438C52.6328 9.01562 53.0703 9.45312 53.6094 9.45312ZM52.7656 19H54.4531V10.7812H52.7656V19ZM56.0078 19H62.375V17.6562H58.0547V17.625L62.3281 11.9375V10.7812H56.0391V12.125H60.3906V12.1562L56.0078 17.9141V19ZM63.8203 19H65.5078V14.2109C65.5078 12.9375 66.2734 12.0938 67.4609 12.0938C68.6328 12.0938 69.2109 12.7734 69.2109 14.0078V19H70.9062V13.6797C70.9062 11.7969 69.8672 10.6406 68.0547 10.6406C66.7891 10.6406 65.9141 11.2188 65.4688 12.1562H65.4297V10.7812H63.8203V19ZM77.9844 16.5859C77.7578 17.3047 77.0469 17.7891 76.0859 17.7891C74.7344 17.7891 73.875 16.8438 73.875 15.4141V15.3125H79.6797V14.7344C79.6797 12.2422 78.2578 10.6328 75.9766 10.6328C73.6562 10.6328 72.1719 12.3516 72.1719 14.9297C72.1719 17.5234 73.6328 19.1562 76.0469 19.1562C77.9297 19.1562 79.3516 18.0859 79.5859 16.5859H77.9844ZM75.9766 11.9922C77.1562 11.9922 77.9531 12.875 77.9922 14.1328H73.8828C73.9688 12.8906 74.7969 11.9922 75.9766 11.9922ZM80.8438 13.1094C80.8438 14.3047 81.6172 15.0547 83.1797 15.4141L84.5156 15.7266C85.4141 15.9297 85.7188 16.2422 85.7188 16.7734C85.7188 17.4453 85.0938 17.8672 84.0781 17.8672C83.0469 17.8672 82.4609 17.4453 82.3047 16.5859H80.6328C80.7891 18.1484 82.0234 19.1562 84.0781 19.1562C86.0156 19.1562 87.4141 18.125 87.4141 16.625C87.4141 15.4375 86.7734 14.7812 85.0938 14.3906L83.7578 14.0859C82.8672 13.8828 82.4922 13.5312 82.4922 13.0156C82.4922 12.3594 83.1016 11.9141 84.0156 11.9141C84.9609 11.9141 85.5469 12.4141 85.6406 13.2109H87.2266C87.1719 11.6953 85.9297 10.6328 84.0156 10.6328C82.125 10.6328 80.8438 11.6406 80.8438 13.1094Z" fill="white"/>
</svg>
