<svg width="22" height="28" viewBox="0 0 22 28" fill="none" xmlns="http://www.w3.org/2000/svg">
<path d="M21.1733 2.86663C21.0184 2.74133 20.8373 2.65233 20.6435 2.60618C20.4497 2.56003 20.248 2.55791 20.0533 2.59996C18.6285 2.89856 17.1577 2.90236 15.7314 2.61114C14.3052 2.31992 12.9536 1.73985 11.7599 0.906631C11.5367 0.751794 11.2716 0.668823 10.9999 0.668823C10.7283 0.668823 10.4631 0.751794 10.2399 0.906631C9.04627 1.73985 7.69469 2.31992 6.26841 2.61114C4.84214 2.90236 3.37134 2.89856 1.94659 2.59996C1.75184 2.55791 1.55015 2.56003 1.35633 2.60618C1.16251 2.65233 0.981494 2.74133 0.826593 2.86663C0.671899 2.99212 0.547288 3.15068 0.461916 3.33065C0.376545 3.51062 0.332582 3.70744 0.33326 3.90663V13.84C0.332074 15.7516 0.787624 17.6359 1.66197 19.3359C2.53632 21.0359 3.80417 22.5024 5.35993 23.6133L10.2266 27.08C10.4524 27.2407 10.7227 27.3271 10.9999 27.3271C11.2771 27.3271 11.5474 27.2407 11.7733 27.08L16.6399 23.6133C18.1957 22.5024 19.4635 21.0359 20.3379 19.3359C21.2122 17.6359 21.6678 15.7516 21.6666 13.84V3.90663C21.6673 3.70744 21.6233 3.51062 21.5379 3.33065C21.4526 3.15068 21.328 2.99212 21.1733 2.86663ZM18.9999 13.84C19.0009 15.3263 18.647 16.7914 17.9675 18.1133C17.2879 19.4352 16.3025 20.5758 15.0933 21.44L10.9999 24.36L6.90659 21.44C5.69731 20.5758 4.71191 19.4352 4.03239 18.1133C3.35288 16.7914 2.9989 15.3263 2.99993 13.84V5.43996C5.79516 5.67921 8.59465 5.03066 10.9999 3.58663C13.4052 5.03066 16.2047 5.67921 18.9999 5.43996V13.84Z" fill="#9DA7BB"/>
</svg>
