<svg width="28" height="24" viewBox="0 0 28 24" fill="none" xmlns="http://www.w3.org/2000/svg">
<path d="M26.2934 12C26.9571 11.2698 27.3275 10.3201 27.3334 9.33333C27.3334 8.27247 26.912 7.25505 26.1618 6.50491C25.4117 5.75476 24.3943 5.33333 23.3334 5.33333H16.4267C16.6397 4.7309 16.7053 4.08621 16.618 3.45324C16.5306 2.82026 16.2929 2.21742 15.9247 1.69518C15.5566 1.17294 15.0686 0.746503 14.5018 0.451571C13.935 0.156639 13.3057 0.00179402 12.6667 0H4.66675C3.60588 0 2.58847 0.421427 1.83832 1.17157C1.08818 1.92172 0.666748 2.93913 0.666748 4C0.672629 4.98674 1.04303 5.93648 1.70675 6.66667C1.05081 7.40003 0.688172 8.34942 0.688172 9.33333C0.688172 10.3172 1.05081 11.2666 1.70675 12C1.05081 12.7334 0.688172 13.6828 0.688172 14.6667C0.688172 15.6506 1.05081 16.6 1.70675 17.3333C1.04303 18.0635 0.672629 19.0133 0.666748 20C0.666748 21.0609 1.08818 22.0783 1.83832 22.8284C2.58847 23.5786 3.60588 24 4.66675 24H23.3334C24.1038 23.9959 24.8565 23.7694 25.5013 23.3478C26.146 22.9262 26.6553 22.3273 26.9679 21.6233C27.2805 20.9192 27.3832 20.1398 27.2635 19.3788C27.1439 18.6178 26.807 17.9075 26.2934 17.3333C26.9494 16.6 27.312 15.6506 27.312 14.6667C27.312 13.6828 26.9494 12.7334 26.2934 12ZM12.6667 21.3333H4.66675C4.31313 21.3333 3.97399 21.1929 3.72394 20.9428C3.47389 20.6928 3.33341 20.3536 3.33341 20C3.33341 19.6464 3.47389 19.3072 3.72394 19.0572C3.97399 18.8071 4.31313 18.6667 4.66675 18.6667H12.6667C13.0204 18.6667 13.3595 18.8071 13.6096 19.0572C13.8596 19.3072 14.0001 19.6464 14.0001 20C14.0001 20.3536 13.8596 20.6928 13.6096 20.9428C13.3595 21.1929 13.0204 21.3333 12.6667 21.3333ZM12.6667 16H4.66675C4.31313 16 3.97399 15.8595 3.72394 15.6095C3.47389 15.3594 3.33341 15.0203 3.33341 14.6667C3.33341 14.313 3.47389 13.9739 3.72394 13.7239C3.97399 13.4738 4.31313 13.3333 4.66675 13.3333H12.6667C13.0204 13.3333 13.3595 13.4738 13.6096 13.7239C13.8596 13.9739 14.0001 14.313 14.0001 14.6667C14.0001 15.0203 13.8596 15.3594 13.6096 15.6095C13.3595 15.8595 13.0204 16 12.6667 16ZM12.6667 10.6667H4.66675C4.31313 10.6667 3.97399 10.5262 3.72394 10.2761C3.47389 10.0261 3.33341 9.68696 3.33341 9.33333C3.33341 8.97971 3.47389 8.64057 3.72394 8.39052C3.97399 8.14048 4.31313 8 4.66675 8H12.6667C13.0204 8 13.3595 8.14048 13.6096 8.39052C13.8596 8.64057 14.0001 8.97971 14.0001 9.33333C14.0001 9.68696 13.8596 10.0261 13.6096 10.2761C13.3595 10.5262 13.0204 10.6667 12.6667 10.6667ZM12.6667 5.33333H4.66675C4.31313 5.33333 3.97399 5.19286 3.72394 4.94281C3.47389 4.69276 3.33341 4.35362 3.33341 4C3.33341 3.64638 3.47389 3.30724 3.72394 3.05719C3.97399 2.80714 4.31313 2.66667 4.66675 2.66667H12.6667C13.0204 2.66667 13.3595 2.80714 13.6096 3.05719C13.8596 3.30724 14.0001 3.64638 14.0001 4C14.0001 4.35362 13.8596 4.69276 13.6096 4.94281C13.3595 5.19286 13.0204 5.33333 12.6667 5.33333ZM24.2534 20.9467C24.1352 21.0713 23.9924 21.1701 23.834 21.2366C23.6757 21.3032 23.5052 21.3361 23.3334 21.3333H16.4267C16.7465 20.4732 16.7465 19.5268 16.4267 18.6667H23.3334C23.687 18.6667 24.0262 18.8071 24.2762 19.0572C24.5263 19.3072 24.6667 19.6464 24.6667 20C24.6643 20.1774 24.6265 20.3524 24.5555 20.515C24.4845 20.6775 24.3818 20.8243 24.2534 20.9467ZM24.2534 15.6133C24.1352 15.738 23.9924 15.8367 23.834 15.9033C23.6757 15.9699 23.5052 16.0028 23.3334 16H16.4267C16.7465 15.1399 16.7465 14.1935 16.4267 13.3333H23.3334C23.687 13.3333 24.0262 13.4738 24.2762 13.7239C24.5263 13.9739 24.6667 14.313 24.6667 14.6667C24.6643 14.844 24.6265 15.0191 24.5555 15.1817C24.4845 15.3442 24.3818 15.491 24.2534 15.6133ZM24.2534 10.28C24.1352 10.4047 23.9924 10.5034 23.834 10.57C23.6757 10.6365 23.5052 10.6695 23.3334 10.6667H16.4267C16.7465 9.80653 16.7465 8.86014 16.4267 8H23.3334C23.687 8 24.0262 8.14048 24.2762 8.39052C24.5263 8.64057 24.6667 8.97971 24.6667 9.33333C24.6643 9.51069 24.6265 9.68577 24.5555 9.84832C24.4845 10.0109 24.3818 10.1576 24.2534 10.28Z" fill="#FFE600"/>
</svg>
