<svg width="28" height="22" viewBox="0 0 28 22" fill="none" xmlns="http://www.w3.org/2000/svg">
<path d="M26.0001 8.87994H22.6668C22.4904 8.88067 22.3158 8.91641 22.1533 8.98507C21.9908 9.05373 21.8436 9.15396 21.7201 9.27994L20.0668 10.9999L16.3334 6.74661C16.2087 6.61339 16.058 6.5072 15.8906 6.4346C15.7231 6.362 15.5426 6.32454 15.3601 6.32454C15.1776 6.32454 14.9971 6.362 14.8296 6.4346C14.6622 6.5072 14.5115 6.61339 14.3868 6.74661L12.1201 9.01328H10.0001C9.64647 9.01328 9.30734 9.15375 9.05729 9.4038C8.80724 9.65385 8.66676 9.99299 8.66676 10.3466C8.66676 10.7002 8.80724 11.0394 9.05729 11.2894C9.30734 11.5395 9.64647 11.6799 10.0001 11.6799H12.6668C12.8422 11.681 13.0162 11.6473 13.1786 11.581C13.3411 11.5146 13.4888 11.4168 13.6134 11.2933L15.3334 9.50661L19.0668 13.7599C19.1872 13.8972 19.3346 14.0083 19.4997 14.0863C19.6648 14.1643 19.8442 14.2075 20.0268 14.2133C20.2022 14.2143 20.3762 14.1807 20.5386 14.1143C20.7011 14.0479 20.8488 13.9502 20.9734 13.8266L23.2401 11.5466H26.0001C26.3537 11.5466 26.6929 11.4061 26.9429 11.1561C27.193 10.906 27.3334 10.5669 27.3334 10.2133C27.3334 9.85965 27.193 9.52051 26.9429 9.27047C26.6929 9.02042 26.3537 8.87994 26.0001 8.87994ZM16.1468 15.9466L13.6134 18.4799C13.4895 18.6049 13.342 18.7041 13.1795 18.7718C13.0171 18.8395 12.8428 18.8743 12.6668 18.8743C12.4907 18.8743 12.3165 18.8395 12.154 18.7718C11.9915 18.7041 11.844 18.6049 11.7201 18.4799L4.77343 11.5333C4.31626 11.0764 3.95359 10.5339 3.70615 9.93675C3.45872 9.33964 3.33136 8.69962 3.33136 8.05327C3.33136 7.40692 3.45872 6.76691 3.70615 6.1698C3.95359 5.57268 4.31626 5.03018 4.77343 4.57327C5.69565 3.65404 6.94466 3.13786 8.24676 3.13786C9.54887 3.13786 10.7979 3.65404 11.7201 4.57327C11.844 4.69825 11.9915 4.79744 12.154 4.86513C12.3165 4.93282 12.4907 4.96767 12.6668 4.96767C12.8428 4.96767 13.0171 4.93282 13.1795 4.86513C13.342 4.79744 13.4895 4.69825 13.6134 4.57327C14.5503 3.68224 15.7938 3.18534 17.0868 3.18534C18.3797 3.18534 19.6232 3.68224 20.5601 4.57327C20.8572 4.87426 21.1168 5.21003 21.3334 5.57327C21.5276 5.84022 21.8138 6.02567 22.1368 6.09374C22.4598 6.1618 22.7966 6.10764 23.0819 5.94173C23.3673 5.77583 23.5809 5.50997 23.6816 5.19561C23.7822 4.88125 23.7627 4.54073 23.6268 4.23994C23.2972 3.69267 22.9033 3.18685 22.4534 2.73327C21.1881 1.45308 19.5082 0.665412 17.7147 0.511482C15.9213 0.357552 14.1317 0.847421 12.6668 1.89327C11.5346 1.07767 10.1991 0.590709 8.80762 0.486142C7.41617 0.381575 6.02288 0.663463 4.78151 1.3007C3.54014 1.93794 2.49896 2.90574 1.77286 4.09732C1.04676 5.28889 0.663982 6.6579 0.666763 8.05327C0.666364 9.04539 0.862985 10.0277 1.24522 10.9433C1.62746 11.8588 2.18769 12.6893 2.89343 13.3866L9.8401 20.3333C10.5901 21.0823 11.6068 21.5031 12.6668 21.5031C13.7268 21.5031 14.7434 21.0823 15.4934 20.3333L18.0001 17.8266C18.2484 17.5768 18.3878 17.2389 18.3878 16.8866C18.3878 16.5344 18.2484 16.1964 18.0001 15.9466C17.7515 15.7063 17.4192 15.572 17.0734 15.572C16.7276 15.572 16.3954 15.7063 16.1468 15.9466Z" fill="#FF004D"/>
</svg>
