<svg width="24" height="24" viewBox="0 0 24 24" fill="none" xmlns="http://www.w3.org/2000/svg">
<path d="M7.03839 15.835C6.83661 16.038 6.72336 16.3126 6.72336 16.5988C6.72336 16.885 6.83661 17.1595 7.03839 17.3625C7.1391 17.4641 7.25891 17.5446 7.39093 17.5996C7.52294 17.6546 7.66454 17.683 7.80755 17.683C7.95057 17.683 8.09216 17.6546 8.22418 17.5996C8.35619 17.5446 8.47601 17.4641 8.57672 17.3625C8.77849 17.1595 8.89174 16.885 8.89174 16.5988C8.89174 16.3126 8.77849 16.038 8.57672 15.835C8.47601 15.7335 8.35619 15.6529 8.22418 15.5979C8.09216 15.5429 7.95057 15.5146 7.80755 15.5146C7.66454 15.5146 7.52294 15.5429 7.39093 15.5979C7.25891 15.6529 7.1391 15.7335 7.03839 15.835ZM7.03839 6.63751C6.83661 6.84049 6.72336 7.11506 6.72336 7.40126C6.72336 7.68746 6.83661 7.96203 7.03839 8.16501C7.1391 8.26655 7.25891 8.34714 7.39093 8.40214C7.52294 8.45714 7.66454 8.48546 7.80755 8.48546C7.95057 8.48546 8.09216 8.45714 8.22418 8.40214C8.35619 8.34714 8.47601 8.26655 8.57672 8.16501C8.77849 7.96203 8.89174 7.68746 8.89174 7.40126C8.89174 7.11506 8.77849 6.84049 8.57672 6.63751C8.47601 6.53597 8.35619 6.45538 8.22418 6.40038C8.09216 6.34538 7.95057 6.31706 7.80755 6.31706C7.66454 6.31706 7.52294 6.34538 7.39093 6.40038C7.25891 6.45538 7.1391 6.53597 7.03839 6.63751ZM12.4009 17.4708C12.1866 17.4708 11.9772 17.5344 11.799 17.6534C11.6209 17.7725 11.482 17.9417 11.4 18.1396C11.318 18.3376 11.2966 18.5554 11.3384 18.7655C11.3802 18.9757 11.4833 19.1687 11.6349 19.3202C11.7864 19.4717 11.9794 19.5749 12.1895 19.6167C12.3997 19.6585 12.6175 19.637 12.8155 19.555C13.0134 19.4731 13.1826 19.3342 13.3016 19.156C13.4207 18.9779 13.4842 18.7684 13.4842 18.5542C13.4916 18.4074 13.469 18.2607 13.4178 18.123C13.3667 17.9852 13.2881 17.8593 13.1867 17.7529C13.0854 17.6465 12.9635 17.5618 12.8284 17.504C12.6933 17.4462 12.5478 17.4165 12.4009 17.4167V17.4708ZM5.90089 10.9708C5.68662 10.9708 5.47717 11.0344 5.29902 11.1534C5.12087 11.2725 4.98201 11.4416 4.90002 11.6396C4.81802 11.8376 4.79657 12.0554 4.83837 12.2655C4.88017 12.4757 4.98335 12.6687 5.13485 12.8202C5.28636 12.9717 5.47939 13.0749 5.68954 13.1167C5.89968 13.1585 6.11751 13.137 6.31546 13.055C6.51341 12.9731 6.68261 12.8342 6.80164 12.656C6.92068 12.4779 6.98422 12.2684 6.98422 12.0542C6.99157 11.9074 6.96898 11.7607 6.91784 11.6229C6.86669 11.4852 6.78806 11.3593 6.68672 11.2529C6.58539 11.1465 6.46346 11.0618 6.32836 11.004C6.19327 10.9462 6.04783 10.9165 5.90089 10.9167V10.9708ZM12.4009 4.47084C12.1866 4.47084 11.9772 4.53438 11.799 4.65342C11.6209 4.77245 11.482 4.94165 11.4 5.1396C11.318 5.33755 11.2966 5.55538 11.3384 5.76552C11.3802 5.97567 11.4833 6.1687 11.6349 6.32021C11.7864 6.47171 11.9794 6.57489 12.1895 6.61669C12.3997 6.65849 12.6175 6.63704 12.8155 6.55504C13.0134 6.47305 13.1826 6.3342 13.3016 6.15604C13.4207 5.97789 13.4842 5.76844 13.4842 5.55418C13.4916 5.40742 13.469 5.2607 13.4178 5.12295C13.3667 4.9852 13.2881 4.85929 13.1867 4.75288C13.0854 4.64648 12.9635 4.5618 12.8284 4.504C12.6933 4.4462 12.5478 4.41649 12.4009 4.41668V4.47084ZM16.2359 6.69168C16.0837 6.84292 15.9799 7.03594 15.9376 7.24627C15.8953 7.45659 15.9163 7.67474 15.9982 7.87307C16.08 8.0714 16.2188 8.24097 16.3971 8.36029C16.5754 8.47962 16.7851 8.54332 16.9996 8.54332C17.2142 8.54332 17.4239 8.47962 17.6022 8.36029C17.7805 8.24097 17.9193 8.0714 18.0011 7.87307C18.0829 7.67474 18.104 7.45659 18.0617 7.24627C18.0194 7.03594 17.9155 6.84292 17.7634 6.69168C17.5677 6.48254 17.2971 6.35944 17.0108 6.34929C16.7246 6.33914 16.4459 6.44277 16.2359 6.63751V6.69168ZM23.0609 6.69168C22.0704 4.71166 20.548 3.04671 18.6643 1.88352C16.7806 0.720323 14.61 0.10488 12.3961 0.106203C10.1822 0.107526 8.01243 0.725562 6.1301 1.89101C4.24777 3.05645 2.72732 4.72322 1.73924 6.70442C0.75116 8.68561 0.334524 10.9029 0.536051 13.1076C0.737578 15.3123 1.5493 17.4173 2.88019 19.1866C4.21109 20.9558 6.00852 22.3193 8.07095 23.1241C10.1334 23.929 12.3793 24.1434 14.5567 23.7433C15.1043 23.6403 15.6258 23.4292 16.0908 23.1223C16.5559 22.8153 16.955 22.4188 17.2651 21.9558C17.5991 21.4525 17.8296 20.8877 17.943 20.2944C18.0565 19.7011 18.0507 19.0911 17.9259 18.5C17.8577 18.1428 17.8214 17.7803 17.8176 17.4167C17.8223 16.3669 18.132 15.3411 18.709 14.4641C19.286 13.587 20.1054 12.8966 21.0676 12.4767C21.5863 12.2444 22.052 11.9083 22.4358 11.489C22.8197 11.0698 23.1135 10.5764 23.2992 10.0392C23.4871 9.49023 23.5628 8.90916 23.5218 8.33042C23.4809 7.75167 23.3241 7.18704 23.0609 6.67001V6.69168ZM21.2192 9.33501C21.1268 9.59427 20.9833 9.83236 20.7972 10.0352C20.6111 10.238 20.3862 10.4015 20.1359 10.5158C18.8034 11.1123 17.6713 12.0808 16.8758 13.3049C16.0802 14.529 15.6549 15.9567 15.6509 17.4167C15.6525 17.9259 15.7033 18.4339 15.8026 18.9333C15.8687 19.2386 15.8731 19.5541 15.8154 19.8611C15.7577 20.1681 15.6392 20.4604 15.4667 20.7208C15.3208 20.9488 15.1288 21.1436 14.903 21.2929C14.6773 21.4422 14.4228 21.5425 14.1559 21.5875C13.5772 21.6963 12.9897 21.7507 12.4009 21.75C11.0946 21.7506 9.80144 21.4888 8.5983 20.9799C7.39516 20.4711 6.30655 19.7257 5.39709 18.7879C4.48764 17.8502 3.77591 16.7392 3.30415 15.5211C2.8324 14.3029 2.61024 13.0024 2.65089 11.6967C2.73496 9.2622 3.72231 6.94621 5.42057 5.19988C7.11883 3.45356 9.40637 2.40198 11.8376 2.25001H12.3901C14.2055 2.25046 15.9847 2.75775 17.5273 3.71475C19.07 4.67174 20.3149 6.04043 21.1217 7.66668C21.3701 8.18124 21.4051 8.77307 21.2192 9.31334V9.33501ZM12.4009 10.9167C12.1866 10.9167 11.9772 10.9802 11.799 11.0993C11.6209 11.2183 11.482 11.3875 11.4 11.5854C11.318 11.7834 11.2966 12.0012 11.3384 12.2114C11.3802 12.4215 11.4833 12.6145 11.6349 12.766C11.7864 12.9175 11.9794 13.0207 12.1895 13.0625C12.3997 13.1043 12.6175 13.0829 12.8155 13.0009C13.0134 12.9189 13.1826 12.78 13.3016 12.6019C13.4207 12.4237 13.4842 12.2143 13.4842 12C13.4842 11.7127 13.3701 11.4371 13.1669 11.234C12.9638 11.0308 12.6882 10.9167 12.4009 10.9167Z" fill="#11BDF3"/>
</svg>
