<svg width="27" height="28" viewBox="0 0 27 28" fill="none" xmlns="http://www.w3.org/2000/svg">
<path d="M7.33333 19.3333C7.86377 19.3333 8.37247 19.1226 8.74755 18.7475C9.12262 18.3724 9.33333 17.8637 9.33333 17.3333C9.33984 17.2668 9.33984 17.1998 9.33333 17.1333L13.0533 13.4133H13.36H13.6667L15.8133 15.56C15.8133 15.56 15.8133 15.6266 15.8133 15.6666C15.8133 16.1971 16.024 16.7058 16.3991 17.0808C16.7742 17.4559 17.2829 17.6666 17.8133 17.6666C18.3438 17.6666 18.8525 17.4559 19.2275 17.0808C19.6026 16.7058 19.8133 16.1971 19.8133 15.6666V15.56L24.6667 10.6666C25.0622 10.6666 25.4489 10.5493 25.7778 10.3296C26.1067 10.1098 26.363 9.79745 26.5144 9.43199C26.6658 9.06654 26.7054 8.66441 26.6282 8.27645C26.5511 7.88848 26.3606 7.53212 26.0809 7.25241C25.8012 6.97271 25.4448 6.78223 25.0568 6.70506C24.6689 6.62788 24.2668 6.66749 23.9013 6.81887C23.5358 6.97024 23.2235 7.22659 23.0037 7.55549C22.784 7.88438 22.6667 8.27106 22.6667 8.66663C22.6602 8.73313 22.6602 8.80012 22.6667 8.86663L17.8533 13.68H17.64L15.3333 11.3333C15.3333 10.8029 15.1226 10.2942 14.7475 9.91908C14.3725 9.54401 13.8638 9.33329 13.3333 9.33329C12.8029 9.33329 12.2942 9.54401 11.9191 9.91908C11.544 10.2942 11.3333 10.8029 11.3333 11.3333L7.33333 15.3333C6.8029 15.3333 6.29419 15.544 5.91912 15.9191C5.54405 16.2942 5.33333 16.8029 5.33333 17.3333C5.33333 17.8637 5.54405 18.3724 5.91912 18.7475C6.29419 19.1226 6.8029 19.3333 7.33333 19.3333ZM25.3333 24.6666H2.66667V1.99996C2.66667 1.64634 2.52619 1.3072 2.27614 1.05715C2.02609 0.807102 1.68696 0.666626 1.33333 0.666626C0.979711 0.666626 0.640573 0.807102 0.390524 1.05715C0.140476 1.3072 0 1.64634 0 1.99996V26C0 26.3536 0.140476 26.6927 0.390524 26.9428C0.640573 27.1928 0.979711 27.3333 1.33333 27.3333H25.3333C25.687 27.3333 26.0261 27.1928 26.2761 26.9428C26.5262 26.6927 26.6667 26.3536 26.6667 26C26.6667 25.6463 26.5262 25.3072 26.2761 25.0571C26.0261 24.8071 25.687 24.6666 25.3333 24.6666Z" fill="#D11F7F"/>
</svg>
