<svg width="26" height="28" viewBox="0 0 26 28" fill="none" xmlns="http://www.w3.org/2000/svg">
<path d="M25.5065 5.68001C25.461 5.50976 25.3822 5.35021 25.2746 5.21061C25.1671 5.071 25.0329 4.95411 24.8799 4.86668L17.9465 0.86668C17.7952 0.77797 17.6278 0.720011 17.4539 0.696127C17.2801 0.672242 17.1033 0.682902 16.9336 0.727495C16.7639 0.772087 16.6046 0.849736 16.465 0.955988C16.3254 1.06224 16.2081 1.19501 16.1199 1.34668L12.9999 6.76001L9.87988 1.34668C9.79166 1.19501 9.67438 1.06224 9.53475 0.955988C9.39512 0.849736 9.23589 0.772087 9.06619 0.727495C8.89649 0.682902 8.71966 0.672242 8.54583 0.696127C8.372 0.720011 8.2046 0.77797 8.05321 0.86668L1.11988 4.86668C0.966857 4.95411 0.832683 5.071 0.725119 5.21061C0.617554 5.35021 0.538733 5.50976 0.493214 5.68001C0.40497 6.01794 0.452845 6.37701 0.626548 6.68001L5.95988 15.7867C5.36488 16.8767 5.03594 18.092 4.99988 19.3333C4.99671 20.5444 5.26852 21.7404 5.79484 22.8311C6.32115 23.9218 7.08823 24.8787 8.03822 25.6298C8.98822 26.3809 10.0963 26.9065 11.279 27.167C12.4617 27.4275 13.6882 27.4161 14.8658 27.1337C16.0434 26.8512 17.1416 26.305 18.0774 25.5364C19.0133 24.7677 19.7624 23.7966 20.2683 22.6963C20.7743 21.596 21.0238 20.3952 20.9981 19.1844C20.9723 17.9737 20.6721 16.7845 20.1199 15.7067L25.3199 6.69335C25.4167 6.54527 25.483 6.37941 25.5151 6.20544C25.5471 6.03147 25.5442 5.85286 25.5065 5.68001ZM3.66655 6.50668L8.27988 3.84001L12.5732 11.3333C10.7431 11.4464 9.00893 12.191 7.66655 13.44L3.66655 6.50668ZM12.9999 24.6667C11.5854 24.6667 10.2288 24.1048 9.22864 23.1046C8.22845 22.1044 7.66655 20.7478 7.66655 19.3333C7.66655 17.9189 8.22845 16.5623 9.22864 15.5621C10.2288 14.5619 11.5854 14 12.9999 14C14.4144 14 15.7709 14.5619 16.7711 15.5621C17.7713 16.5623 18.3332 17.9189 18.3332 19.3333C18.3332 20.7478 17.7713 22.1044 16.7711 23.1046C15.7709 24.1048 14.4144 24.6667 12.9999 24.6667ZM18.3332 13.4C17.6093 12.7388 16.7682 12.2188 15.8532 11.8667L14.5465 9.42668L17.7732 3.84001L22.3865 6.50668L18.3332 13.4Z" fill="#F37E11"/>
</svg>
