<svg width="28" height="24" viewBox="0 0 28 24" fill="none" xmlns="http://www.w3.org/2000/svg">
<path d="M23.3334 4H19.3334V2.66667C19.3334 1.95942 19.0525 1.28115 18.5524 0.781048C18.0523 0.280951 17.374 0 16.6667 0H11.3334C10.6262 0 9.94789 0.280951 9.4478 0.781048C8.9477 1.28115 8.66675 1.95942 8.66675 2.66667V4H4.66675C3.60588 4 2.58847 4.42143 1.83832 5.17157C1.08818 5.92172 0.666748 6.93913 0.666748 8V20C0.666748 21.0609 1.08818 22.0783 1.83832 22.8284C2.58847 23.5786 3.60588 24 4.66675 24H23.3334C24.3943 24 25.4117 23.5786 26.1618 22.8284C26.912 22.0783 27.3334 21.0609 27.3334 20V8C27.3334 6.93913 26.912 5.92172 26.1618 5.17157C25.4117 4.42143 24.3943 4 23.3334 4ZM11.3334 2.66667H16.6667V4H11.3334V2.66667ZM24.6667 20C24.6667 20.3536 24.5263 20.6928 24.2762 20.9428C24.0262 21.1929 23.687 21.3333 23.3334 21.3333H4.66675C4.31313 21.3333 3.97399 21.1929 3.72394 20.9428C3.47389 20.6928 3.33341 20.3536 3.33341 20V12.52L9.57342 14.6667C9.71499 14.6859 9.85851 14.6859 10.0001 14.6667H18.0001C18.1447 14.664 18.2882 14.6416 18.4267 14.6L24.6667 12.52V20ZM24.6667 9.70667L17.7867 12H10.2134L3.33341 9.70667V8C3.33341 7.64638 3.47389 7.30724 3.72394 7.05719C3.97399 6.80714 4.31313 6.66667 4.66675 6.66667H23.3334C23.687 6.66667 24.0262 6.80714 24.2762 7.05719C24.5263 7.30724 24.6667 7.64638 24.6667 8V9.70667Z" fill="#EB3B3B"/>
</svg>
