<?xml version="1.0" standalone="no"?>
<!DOCTYPE svg PUBLIC "-//W3C//DTD SVG 20010904//EN"
 "http://www.w3.org/TR/2001/REC-SVG-20010904/DTD/svg10.dtd">
<svg version="1.0" xmlns="http://www.w3.org/2000/svg"
 width="348.000000pt" height="196.000000pt" viewBox="0 0 348.000000 196.000000"
 preserveAspectRatio="xMidYMid meet">

<g transform="translate(0.000000,196.000000) scale(0.100000,-0.100000)"
fill="#000000" stroke="none">
<path d="M220 1564 l0 -225 51 3 50 3 2 170 2 170 173 3 172 2 0 50 0 50 -225
0 -225 0 0 -226z"/>
<path d="M2940 1740 l0 -50 168 -2 167 -3 3 -172 2 -173 50 0 50 0 0 225 0
225 -220 0 -220 0 0 -50z"/>
<path d="M220 330 l0 -220 225 0 225 0 0 50 0 50 -172 2 -173 3 0 168 0 167
-52 0 -53 0 0 -220z"/>
<path d="M3280 380 l0 -170 -170 0 -170 0 0 -50 0 -50 220 0 220 0 0 220 0
220 -50 0 -50 0 0 -170z"/>
</g>
</svg>
