<svg width="169" height="36" viewBox="0 0 169 36" fill="none" xmlns="http://www.w3.org/2000/svg">
<path d="M5.10938 15.5703L0.234375 10.4141L10.3594 1.39062H16.5703V35H8.76562V12.3594L5.10938 15.5703ZM50.1562 18.1953C50.1562 20.6953 49.8516 23.0078 49.2422 25.1328C48.6328 27.2578 47.7266 29.1328 46.5234 30.7578C45.3359 32.3672 43.7734 33.6328 41.8359 34.5547C39.9141 35.4766 37.7188 35.9375 35.25 35.9375C32.7812 35.9375 30.5781 35.4766 28.6406 34.5547C26.7188 33.6328 25.1562 32.3672 23.9531 30.7578C22.7656 29.1328 21.8672 27.2578 21.2578 25.1328C20.6484 23.0078 20.3438 20.6953 20.3438 18.1953C20.3438 15.6953 20.6484 13.3828 21.2578 11.2578C21.8672 9.13281 22.7656 7.26562 23.9531 5.65625C25.1562 4.03125 26.7188 2.75781 28.6406 1.83594C30.5781 0.914063 32.7812 0.453125 35.25 0.453125C37.2344 0.453125 39.0469 0.757812 40.6875 1.36719C42.3281 1.96094 43.7266 2.79688 44.8828 3.875C46.0391 4.9375 47.0156 6.21094 47.8125 7.69531C48.625 9.17969 49.2188 10.8047 49.5938 12.5703C49.9688 14.3203 50.1562 16.1953 50.1562 18.1953ZM40.5938 26.3047C41.7656 24.3828 42.3516 21.6797 42.3516 18.1953C42.3516 14.7109 41.7656 12.0078 40.5938 10.0859C39.4375 8.16406 37.6562 7.20312 35.25 7.20312C32.8438 7.20312 31.0547 8.16406 29.8828 10.0859C28.7266 12.0078 28.1484 14.7109 28.1484 18.1953C28.1484 21.6797 28.7266 24.3828 29.8828 26.3047C31.0547 28.2266 32.8438 29.1875 35.25 29.1875C37.6562 29.1875 39.4375 28.2266 40.5938 26.3047ZM82.4531 18.1953C82.4531 20.6953 82.1484 23.0078 81.5391 25.1328C80.9297 27.2578 80.0234 29.1328 78.8203 30.7578C77.6328 32.3672 76.0703 33.6328 74.1328 34.5547C72.2109 35.4766 70.0156 35.9375 67.5469 35.9375C65.0781 35.9375 62.875 35.4766 60.9375 34.5547C59.0156 33.6328 57.4531 32.3672 56.25 30.7578C55.0625 29.1328 54.1641 27.2578 53.5547 25.1328C52.9453 23.0078 52.6406 20.6953 52.6406 18.1953C52.6406 15.6953 52.9453 13.3828 53.5547 11.2578C54.1641 9.13281 55.0625 7.26562 56.25 5.65625C57.4531 4.03125 59.0156 2.75781 60.9375 1.83594C62.875 0.914063 65.0781 0.453125 67.5469 0.453125C69.5312 0.453125 71.3438 0.757812 72.9844 1.36719C74.625 1.96094 76.0234 2.79688 77.1797 3.875C78.3359 4.9375 79.3125 6.21094 80.1094 7.69531C80.9219 9.17969 81.5156 10.8047 81.8906 12.5703C82.2656 14.3203 82.4531 16.1953 82.4531 18.1953ZM72.8906 26.3047C74.0625 24.3828 74.6484 21.6797 74.6484 18.1953C74.6484 14.7109 74.0625 12.0078 72.8906 10.0859C71.7344 8.16406 69.9531 7.20312 67.5469 7.20312C65.1406 7.20312 63.3516 8.16406 62.1797 10.0859C61.0234 12.0078 60.4453 14.7109 60.4453 18.1953C60.4453 21.6797 61.0234 24.3828 62.1797 26.3047C63.3516 28.2266 65.1406 29.1875 67.5469 29.1875C69.9531 29.1875 71.7344 28.2266 72.8906 26.3047ZM114.75 18.1953C114.75 20.6953 114.445 23.0078 113.836 25.1328C113.227 27.2578 112.32 29.1328 111.117 30.7578C109.93 32.3672 108.367 33.6328 106.43 34.5547C104.508 35.4766 102.312 35.9375 99.8438 35.9375C97.375 35.9375 95.1719 35.4766 93.2344 34.5547C91.3125 33.6328 89.75 32.3672 88.5469 30.7578C87.3594 29.1328 86.4609 27.2578 85.8516 25.1328C85.2422 23.0078 84.9375 20.6953 84.9375 18.1953C84.9375 15.6953 85.2422 13.3828 85.8516 11.2578C86.4609 9.13281 87.3594 7.26562 88.5469 5.65625C89.75 4.03125 91.3125 2.75781 93.2344 1.83594C95.1719 0.914063 97.375 0.453125 99.8438 0.453125C101.828 0.453125 103.641 0.757812 105.281 1.36719C106.922 1.96094 108.32 2.79688 109.477 3.875C110.633 4.9375 111.609 6.21094 112.406 7.69531C113.219 9.17969 113.812 10.8047 114.188 12.5703C114.562 14.3203 114.75 16.1953 114.75 18.1953ZM105.188 26.3047C106.359 24.3828 106.945 21.6797 106.945 18.1953C106.945 14.7109 106.359 12.0078 105.188 10.0859C104.031 8.16406 102.25 7.20312 99.8438 7.20312C97.4375 7.20312 95.6484 8.16406 94.4766 10.0859C93.3203 12.0078 92.7422 14.7109 92.7422 18.1953C92.7422 21.6797 93.3203 24.3828 94.4766 26.3047C95.6484 28.2266 97.4375 29.1875 99.8438 29.1875C102.25 29.1875 104.031 28.2266 105.188 26.3047ZM118.5 10.8594H126.188V19.1328L135.352 10.8594H145.078L133.805 21.0312L145.078 35H136.055L128.602 25.7656L126.188 27.9219V35H118.5V10.8594ZM147.656 10.8594H168.375V16.7656H155.344V35H147.656V10.8594Z" fill="#009CA5"/>
</svg>
