<svg width="164" height="140" viewBox="0 0 164 140" fill="none" xmlns="http://www.w3.org/2000/svg">
<path d="M37.8857 0.226683C35.2481 -0.593092 32.4469 0.880592 31.6271 3.51788L14.6082 58.284C14.2144 59.5504 14.3402 60.9213 14.9575 62.0951C15.5748 63.2688 16.633 64.1491 17.8994 64.5429L106.186 91.9779L162.719 39.0188L37.8857 0.226683Z" fill="#009CA5"/>
<path d="M159.483 58.0327L157.657 57.4651L124.742 88.2988L147.847 95.4788C148.332 95.6294 148.832 95.7042 149.331 95.7042C150.135 95.7042 150.934 95.5106 151.659 95.1296C152.832 94.5123 153.713 93.454 154.106 92.1876L162.775 64.2917C163.594 61.6544 162.121 58.8522 159.483 58.0327Z" fill="#009CA5"/>
<path d="M55.639 86.7424L54.498 90.4147C53.6786 93.052 55.152 95.8539 57.7892 96.6733L86.3814 105.558C86.8663 105.709 87.3664 105.784 87.8653 105.784C88.6685 105.784 89.4682 105.59 90.1925 105.209C91.3663 104.592 92.2465 103.534 92.6404 102.267L93.7814 98.5946L55.639 86.7424Z" fill="#009CA5"/>
<path d="M65.0421 109.4L64.6871 110.679H29.0159C27.9956 100.414 19.3114 92.3711 8.7829 92.3711H5.00015C2.2387 92.3708 0 94.6098 0 97.3712V134.526C0 137.287 2.2387 139.526 5.00015 139.526H8.7829C19.4944 139.526 28.2916 131.199 29.057 120.68H68.488C70.7344 120.68 72.705 119.181 73.3061 117.017L74.5964 112.369L65.0421 109.4Z" fill="#009CA5"/>
</svg>
