<svg width="23" height="17" viewBox="0 0 23 17" fill="none" xmlns="http://www.w3.org/2000/svg">
<path d="M20.3563 0H1.96146C1.65951 0 1.37684 0.0742335 1.12109 0.19659L11.1153 10.1908L13.3554 8.03804C13.3554 8.03804 13.3555 8.03782 13.3556 8.03774C13.3556 8.03765 13.3558 8.03756 13.3558 8.03756L21.197 0.196764C20.9412 0.0743206 20.6584 0 20.3563 0Z" fill="white"/>
<path d="M22.1212 1.12109L14.7422 8.49971L22.1209 15.8785C22.2433 15.6227 22.3175 15.34 22.3175 15.0381V1.96116C22.3175 1.65938 22.2435 1.37675 22.1212 1.12109Z" fill="white"/>
<path d="M0.19659 1.12109C0.0742334 1.37683 0 1.65951 0 1.96146V15.0384C0 15.3402 0.0741462 15.6229 0.196416 15.8785L7.57542 8.49993L0.19659 1.12109Z" fill="white"/>
<path d="M13.8183 9.42489L11.5779 11.5779C11.4502 11.7056 11.2829 11.7695 11.1157 11.7695C10.9484 11.7695 10.7811 11.7056 10.6534 11.5779L8.50023 9.4248L1.12109 16.8035C1.37688 16.9259 1.65973 17.0002 1.96177 17.0002H20.3567C20.6586 17.0002 20.9413 16.926 21.197 16.8036L13.8183 9.42489Z" fill="white"/>
</svg>
