<svg width="22" height="21" viewBox="0 0 22 21" fill="none" xmlns="http://www.w3.org/2000/svg">
<path d="M22 10.5C22 4.70039 17.0758 0 11 0C4.92422 0 0 4.70039 0 10.5C0 16.2996 4.92422 21 11 21C11.0645 21 11.1289 21 11.1934 20.9959V12.8256H8.83008V10.1965H11.1934V8.26055C11.1934 6.01699 12.6285 4.79473 14.7254 4.79473C15.7309 4.79473 16.5945 4.86445 16.8438 4.89727V7.24336H15.4C14.2613 7.24336 14.0379 7.76016 14.0379 8.51894V10.1924H16.7664L16.4098 12.8215H14.0379V20.5939C18.6355 19.3348 22 15.2947 22 10.5Z" fill="white"/>
</svg>
