<svg width="140" height="123" viewBox="0 0 140 123" fill="none" xmlns="http://www.w3.org/2000/svg">
<path d="M100.656 0.693481H78.5944C76.7667 0.693481 75.2852 2.17507 75.2852 4.00271V10.6212C75.2852 12.4488 76.7667 13.9304 78.5944 13.9304H100.656C102.484 13.9304 103.965 12.4488 103.965 10.6212V4.00271C103.965 2.17507 102.484 0.693481 100.656 0.693481Z" fill="#009CA5"/>
<path d="M36.6774 49.2289H14.6159C13.7382 49.2289 12.8965 49.5775 12.2759 50.1981C11.6553 50.8187 11.3066 51.6604 11.3066 52.5381C11.3066 53.4158 11.6553 54.2575 12.2759 54.8781C12.8965 55.4987 13.7382 55.8473 14.6159 55.8473H36.6774C37.5551 55.8473 38.3968 55.4987 39.0174 54.8781C39.638 54.2575 39.9866 53.4158 39.9866 52.5381C39.9866 51.6604 39.638 50.8187 39.0174 50.1981C38.3968 49.5775 37.5551 49.2289 36.6774 49.2289Z" fill="#009CA5"/>
<path d="M35.5745 79.012C35.5745 78.1343 35.2259 77.2926 34.6053 76.672C33.9847 76.0514 33.143 75.7028 32.2653 75.7028H10.2038C9.3261 75.7028 8.48438 76.0514 7.86378 76.672C7.24318 77.2926 6.89453 78.1343 6.89453 79.012C6.89453 79.8897 7.24318 80.7314 7.86378 81.352C8.48438 81.9726 9.3261 82.3212 10.2038 82.3212H32.2653C33.143 82.3212 33.9847 81.9726 34.6053 81.352C35.2259 80.7314 35.5745 79.8897 35.5745 79.012Z" fill="#009CA5"/>
<path d="M34.4711 88.9397H19.028C18.1503 88.9397 17.3086 89.2883 16.688 89.9089C16.0674 90.5295 15.7188 91.3713 15.7188 92.2489C15.7188 93.1266 16.0674 93.9683 16.688 94.5889C17.3086 95.2095 18.1503 95.5582 19.028 95.5582H34.4711C35.3487 95.5582 36.1904 95.2095 36.811 94.5889C37.4316 93.9683 37.7803 93.1266 37.7803 92.2489C37.7803 91.3713 37.4316 90.5295 36.811 89.9089C36.1904 89.2883 35.3487 88.9397 34.4711 88.9397Z" fill="#009CA5"/>
<path d="M35.5739 65.7751C35.5739 64.8974 35.2252 64.0557 34.6046 63.4351C33.984 62.8145 33.1423 62.4658 32.2646 62.4658H3.58462C2.70696 62.4658 1.86524 62.8145 1.24464 63.4351C0.624041 64.0557 0.275391 64.8974 0.275391 65.7751C0.275391 66.6527 0.624041 67.4944 1.24464 68.115C1.86524 68.7356 2.70696 69.0843 3.58462 69.0843H32.2646C33.1423 69.0843 33.984 68.7356 34.6046 68.115C35.2252 67.4944 35.5739 66.6527 35.5739 65.7751Z" fill="#009CA5"/>
<path d="M89.6238 72.3935V34.8889C68.9436 34.8889 52.1191 51.7133 52.1191 72.3935C52.1191 93.0738 68.9436 109.898 89.6238 109.898C110.304 109.898 127.128 93.0738 127.128 72.3935H89.6238Z" fill="#009CA5"/>
<path d="M125.921 38.5712L129.469 35.0226C129.781 34.7162 130.028 34.3512 130.198 33.9487C130.368 33.5461 130.456 33.114 130.458 32.6771C130.459 32.2403 130.375 31.8074 130.208 31.4035C130.042 30.9996 129.797 30.6326 129.488 30.3237C129.18 30.0148 128.813 29.7701 128.409 29.6037C128.005 29.4374 127.572 29.3527 127.135 29.3544C126.698 29.3562 126.266 29.4445 125.863 29.6141C125.461 29.7837 125.096 30.0314 124.79 30.3428L121.096 34.0356C113.984 28.1767 105.376 24.4223 96.2433 23.1962V17.2396H83.0063V23.1962C73.8738 24.4219 65.2656 28.1757 58.1532 34.034L54.4601 30.3411C54.1537 30.0297 53.7887 29.7821 53.3862 29.6125C52.9836 29.4428 52.5514 29.3546 52.1146 29.3528C51.6778 29.351 51.2449 29.4357 50.841 29.6021C50.437 29.7684 50.07 30.0131 49.7612 30.322C49.4523 30.6309 49.2076 30.9979 49.0412 31.4018C48.8749 31.8058 48.7902 32.2386 48.7919 32.6755C48.7937 33.1123 48.882 33.5445 49.0516 33.947C49.2212 34.3496 49.4689 34.7146 49.7803 35.021L53.3286 38.5695C44.7473 47.7408 39.9772 59.8336 39.9863 72.3935C39.9863 99.7641 62.2542 122.032 89.6248 122.032C116.995 122.032 139.263 99.7641 139.263 72.3935C139.272 59.8342 134.502 47.742 125.921 38.5712ZM89.6248 113.207C81.5526 113.207 73.6617 110.814 66.9498 106.329C60.238 101.844 55.0068 95.47 51.9177 88.0123C48.8286 80.5545 48.0204 72.3482 49.5952 64.4311C51.17 56.514 55.0571 49.2416 60.7651 43.5337C66.473 37.8258 73.7453 33.9387 81.6624 32.3639C89.5795 30.789 97.7858 31.5973 105.244 34.6864C112.701 37.7755 119.076 43.0067 123.56 49.7185C128.045 56.4303 130.439 64.3213 130.439 72.3935C130.439 77.7532 129.383 83.0605 127.332 88.0123C125.281 92.964 122.274 97.4633 118.485 101.253C114.695 105.043 110.195 108.049 105.244 110.101C100.292 112.152 94.9846 113.207 89.6248 113.207Z" fill="#009CA5"/>
</svg>
