<svg width="103" height="83" viewBox="0 0 103 83" fill="none" xmlns="http://www.w3.org/2000/svg">
<path d="M5.75938 65.653H24.5041L45.2774 81.3141C48.5233 83.7485 53.0682 81.4764 53.0682 77.4191V5.03699C53.0682 1.06084 48.4421 -1.29239 45.2774 1.14199L24.5041 16.8031H5.75938C3.08156 16.8031 0.890625 18.9941 0.890625 21.6719V60.8662C0.890625 63.462 3.08156 65.653 5.75938 65.653Z" fill="#009CA5"/>
<path d="M100.213 23.6194C98.0225 21.4285 94.3709 21.4285 92.18 23.6194L82.6048 33.1946L73.0296 23.6194C70.8386 21.4285 67.1871 21.4285 64.9961 23.6194C62.806 25.8103 62.806 29.4619 64.9961 31.6528L74.5721 41.2281L64.9961 50.8033C62.806 52.9942 62.806 56.6458 64.9961 58.8367C66.1322 59.9719 67.5928 60.5408 69.0534 60.5408C70.5148 60.5408 71.9747 59.9728 73.1107 58.8367L82.6867 49.2607L92.2611 58.8367C93.3972 59.9719 94.8586 60.5408 96.3184 60.5408C97.7799 60.5408 99.2405 59.9728 100.376 58.8367C102.567 56.6458 102.567 52.9942 100.376 50.8033L90.6382 41.2281L100.214 31.6528C102.404 29.4619 102.404 25.8103 100.213 23.6194Z" fill="#009CA5"/>
</svg>
