<svg width="194" height="173" viewBox="0 0 194 173" fill="none" xmlns="http://www.w3.org/2000/svg">
<path d="M0 135.053V172.31H64.6664V161.588H48.5V135.053H0Z" fill="#009CA5"/>
<path d="M48.4788 77.6626C48.1025 67.2461 40.3099 58.579 29.9336 56.2185V45.1036C40.571 42.6838 48.5 33.6375 48.5 22.8722C48.5 10.2603 37.6216 0 24.25 0C10.8784 0 0 10.2603 0 22.8722C0 33.6379 7.92899 42.6842 18.5664 45.1036V56.2185C8.19006 58.579 0.397473 67.2461 0.0212188 77.6626H48.4788ZM18.5664 17.5115H29.9336V28.2329H18.5664V17.5115Z" fill="#009CA5"/>
<path d="M141.829 88.3843H89.1959L51.084 124.331H103.717L141.829 88.3843Z" fill="#009CA5"/>
<path d="M119.793 124.331H194V88.3843H157.905L119.793 124.331Z" fill="#009CA5"/>
<path d="M35.0094 124.331L73.1213 88.3843H0V124.331H35.0094Z" fill="#009CA5"/>
</svg>
