<svg width="87" height="145" viewBox="0 0 87 145" fill="none" xmlns="http://www.w3.org/2000/svg">
<path d="M82.2593 85.0478H47.4039V76.6825H48.7981C69.5551 76.6825 86.4422 59.7955 86.4422 39.0384C86.4422 36.7283 84.5694 34.8558 82.2596 34.8558H76.6828C64.869 34.8558 54.3106 40.3276 47.4039 48.8681V35.344C50.2282 32.6658 55.7691 26.4418 55.7691 18.8223C55.7691 8.8156 46.2079 1.20935 45.8007 0.890177C44.2855 -0.296726 42.1567 -0.296726 40.6415 0.890177C40.2343 1.20906 30.6731 8.81588 30.6731 18.8223C30.6731 26.4421 36.214 32.6658 39.0383 35.344V48.8681C32.1316 40.3278 21.5735 34.8558 9.75944 34.8558H4.18262C1.87253 34.8558 0 36.7286 0 39.0384C0 59.7955 16.8871 76.6825 37.6441 76.6825H39.0383V85.0478H4.18262C1.87253 85.0478 0 86.9206 0 89.2304V119.675C0 120.355 0.165957 121.025 0.483144 121.626L11.6371 142.768C12.3609 144.141 13.7852 145 15.3366 145H71.1056C72.6548 145 74.0767 144.143 74.8017 142.775L85.9557 121.717C86.2751 121.114 86.4422 120.442 86.4422 119.759V89.2307C86.4422 86.9206 84.5694 85.0478 82.2593 85.0478Z" fill="#009CA5"/>
</svg>
