<svg width="151" height="174" viewBox="0 0 151 174" fill="none" xmlns="http://www.w3.org/2000/svg">
<path d="M62.8568 64.9149L63.5383 63.7646C64.8656 61.4279 65.1526 58.7678 64.5069 56.3233C63.8612 53.8788 62.2829 51.7219 59.9512 50.3559L59.7719 50.248L51.7367 45.5748V55.101C51.7367 57.7972 52.8487 60.2416 54.6064 62.0031C56.3641 63.7646 58.8392 64.879 61.4937 64.879H62.8568V64.9149ZM28.0617 86.6277C30.7879 88.2094 33.55 89.7911 36.2762 91.3728C38.6078 92.7029 41.2623 92.9905 43.7016 92.3435C46.1408 91.6964 48.2931 90.1146 49.6562 87.778L49.7638 87.5983L50.3377 86.5917L49.7638 85.6211C49.692 85.5133 49.6203 85.3695 49.5486 85.2616C48.1855 83.0328 46.0691 81.523 43.7016 80.8759C41.3699 80.2289 38.7872 80.4805 36.4914 81.7028C36.3479 81.8106 36.1686 81.9184 35.9892 81.9903L28.0617 86.6277ZM51.7367 127.645L59.9512 122.899C62.2829 121.569 63.8612 119.377 64.5069 116.932C65.1526 114.488 64.9015 111.827 63.5383 109.491L62.8568 108.34H61.4937C58.8033 108.34 56.3641 109.455 54.6064 111.216C52.8487 112.978 51.7367 115.422 51.7367 118.118V127.645ZM98.9791 127.645V118.118C98.9791 115.422 97.8671 112.978 96.1094 111.216C94.3517 109.455 91.9125 108.34 89.2222 108.34H87.859L87.1775 109.491C85.8503 111.827 85.5633 114.488 86.209 116.932C86.8547 119.377 88.433 121.533 90.7646 122.899L98.9791 127.645ZM122.618 86.6277L114.583 81.9544L114.404 81.8465C112.072 80.5165 109.418 80.2289 106.978 80.8759C104.539 81.523 102.387 83.1047 101.024 85.4414L100.342 86.6277L100.916 87.6342L101.024 87.814C102.351 90.1506 104.539 91.7323 106.978 92.3794C109.418 93.0265 112.072 92.7748 114.404 91.4088L122.618 86.6277ZM98.9791 45.6107L90.944 50.248L90.7646 50.3559C88.433 51.7219 86.8547 53.8788 86.209 56.3233C85.5633 58.7678 85.8144 61.4279 87.1775 63.7646L87.859 64.9149H89.2222C91.9125 64.9149 94.3517 63.8005 96.1094 62.0391C97.8671 60.2776 98.9791 57.8331 98.9791 55.137V45.6107ZM57.8707 86.5558C60.8121 91.5885 63.7177 96.7291 66.6233 101.798H84.1284L88.5047 94.2128L88.6123 94.033L92.881 86.5917L88.5047 79.0066L84.1284 71.4216H66.5874L57.8707 86.5558ZM53.9966 92.9905C51.7726 95.8304 48.7235 97.7716 45.4234 98.6703C41.4058 99.7488 36.9578 99.2815 33.0837 97.0527C32.7967 96.8729 32.4739 96.7291 32.1869 96.5494L22.5016 90.9415C22.3582 90.8696 22.2147 90.7977 22.0712 90.6898L21.9277 90.6179L21.7842 90.5101C10.7 98.4187 9.80322 108.017 9.04993 116.393C8.76296 119.7 8.44011 122.864 7.68682 125.847C10.5924 126.638 13.4262 127.968 16.4035 129.334C24.08 132.893 32.8326 136.919 45.2799 131.239V131.06V118.154C45.2799 113.661 47.1093 109.563 50.0508 106.615C52.49 104.17 55.6825 102.517 59.2338 101.978L53.9966 92.9905ZM70.1745 108.34C71.5018 111.684 71.6811 115.278 70.7843 118.622C69.7082 122.648 67.0896 126.279 63.2155 128.543L62.5698 128.939L62.3546 129.083L52.0595 134.978L51.9161 135.05C53.2074 148.638 61.0274 154.174 67.9146 159.063C70.6409 160.969 73.2236 162.802 75.3759 164.995C77.5281 162.874 80.075 161.077 82.7295 159.171C89.6167 154.282 97.5084 148.71 98.7998 135.05L98.6563 134.978L88.3971 129.047L88.1819 128.903L87.5362 128.507C83.6621 126.243 81.0435 122.648 79.9674 118.586C79.0706 115.278 79.25 111.648 80.5772 108.304H70.1745V108.34ZM91.5179 101.978C95.0692 102.481 98.2617 104.17 100.701 106.615C103.642 109.563 105.472 113.661 105.472 118.154V130.592V131.024V131.204C117.919 136.883 126.672 132.821 134.348 129.298C137.326 127.932 140.159 126.602 143.065 125.811C142.276 122.864 141.989 119.7 141.702 116.357C140.949 107.945 140.052 98.3827 128.968 90.4741L128.824 90.582L128.681 90.6539C128.537 90.7617 128.394 90.8336 128.25 90.9055L118.565 96.5134C118.278 96.6932 117.955 96.837 117.668 97.0167C113.794 99.2815 109.346 99.7128 105.328 98.6344C101.992 97.7357 98.9433 95.7945 96.7192 92.9546L94.2083 97.3043L94.1007 97.484L91.5179 101.978ZM128.788 82.6734L128.932 82.7812C140.088 74.8366 140.949 65.2025 141.738 56.7547C142.025 53.4834 142.312 50.3918 143.065 47.48C140.088 46.6891 137.218 45.3591 134.205 43.9571C126.564 40.4342 117.847 36.408 105.472 42.0518V42.2316V42.6629V55.101C105.472 59.5946 103.642 63.6927 100.701 66.6404C98.2617 69.0849 95.0692 70.7385 91.5179 71.2778L94.1007 75.7713L96.6834 80.3008C98.9074 77.4609 101.956 75.5197 105.292 74.6209C109.31 73.5425 113.758 74.0098 117.632 76.2386L117.812 76.3465L128.788 82.6734ZM51.9161 38.2054L52.0595 38.2773L62.9285 44.5682C63.1079 44.6401 63.2514 44.748 63.4307 44.8558C67.1972 47.1205 69.7441 50.6794 70.7843 54.6337C71.6811 57.941 71.5018 61.5717 70.1745 64.9149H80.5772C79.25 61.5717 79.0706 57.941 79.9674 54.6337C81.0435 50.6075 83.6621 46.9767 87.5362 44.712L87.7156 44.6042L98.6922 38.2413L98.8356 38.1694C97.5443 24.5091 89.6526 18.9371 82.7653 14.0481C80.075 12.1429 77.564 10.3455 75.4117 8.22452C73.2595 10.3814 70.6408 12.2148 67.9505 14.156C61.0274 19.0449 53.2074 24.6169 51.9161 38.2054ZM45.2081 42.2316V42.0518C32.8326 36.408 24.1158 40.4342 16.4753 43.9571C13.4621 45.3591 10.5924 46.6891 7.61508 47.48C8.36837 50.3918 8.65534 53.5193 8.94231 56.7547C9.69561 65.1666 10.5924 74.8366 21.7483 82.7812L21.8918 82.6734L33.0478 76.2386C36.9219 73.9739 41.3699 73.5425 45.3875 74.6209C48.7235 75.5197 51.7726 77.4609 53.9966 80.3008L59.1979 71.2778C55.6467 70.7745 52.4183 69.0849 50.0149 66.6404C47.0734 63.6927 45.244 59.5946 45.244 55.101V42.2316H45.2081ZM45.6745 35.1498C47.7909 20.4469 56.4717 14.2998 64.1482 8.87158C67.5918 6.4271 70.7843 4.16236 72.6496 1.4303C73.654 -0.0795312 75.6628 -0.439013 77.1694 0.567538C77.564 0.819176 77.8868 1.17866 78.1021 1.53814C79.9674 4.19831 83.0882 6.39116 86.4601 8.79969C94.1365 14.2279 102.889 20.4469 105.006 35.1857C118.744 29.6497 128.429 34.1432 136.931 38.0616C140.769 39.823 144.32 41.4767 147.621 41.7283C149.414 41.8721 150.777 43.4179 150.634 45.2153C150.598 45.7186 150.454 46.1859 150.239 46.5813C148.912 49.5291 148.553 53.3036 148.194 57.4017C147.334 66.7842 146.365 77.4609 134.671 86.6996C146.329 95.8664 147.298 106.507 148.159 115.854C148.553 120.06 148.912 123.942 150.347 126.962C151.136 128.579 150.454 130.52 148.84 131.311C148.446 131.527 148.015 131.599 147.585 131.635C144.356 131.922 140.841 133.54 137.074 135.266C128.537 139.22 118.816 143.714 105.006 138.177C102.889 152.952 94.1365 159.135 86.4601 164.563C83.0882 166.936 79.9674 169.165 78.1021 171.825C77.851 172.22 77.564 172.544 77.1694 172.796C75.6628 173.802 73.654 173.407 72.6496 171.933C70.7843 169.165 67.5918 166.9 64.1482 164.492C56.4717 159.063 47.7909 152.916 45.6745 138.213C31.864 143.749 22.1429 139.256 13.6056 135.302C9.83909 133.576 6.35958 131.958 3.0953 131.671C2.66484 131.635 2.23439 131.527 1.8398 131.347C0.225598 130.556 -0.455955 128.615 0.333213 126.998C1.80393 123.978 2.16264 120.096 2.52136 115.89C3.38227 106.507 4.35079 95.9023 16.0089 86.7355C4.31492 77.5328 3.31052 66.8202 2.44961 57.4377C2.0909 53.3396 1.73219 49.565 0.404954 46.6173C0.189727 46.2218 0.0103682 45.7545 0.0103682 45.2512C-0.133117 43.4538 1.22999 41.908 3.02356 41.7642C6.32371 41.5126 9.91084 39.8949 13.7132 38.0975C22.2864 34.1073 31.9358 29.6497 45.6745 35.1498Z" fill="#009CA5"/>
</svg>
