<svg width="186" height="186" viewBox="0 0 186 186" fill="none" xmlns="http://www.w3.org/2000/svg">
<g clip-path="url(#clip0)">
<path d="M93 26.7918C89.7915 26.7918 87.1875 24.1878 87.1875 20.9793V5.8125C87.1875 2.604 89.7915 0 93 0C96.2085 0 98.8125 2.604 98.8125 5.8125V20.9793C98.8125 24.1878 96.2085 26.7918 93 26.7918Z" fill="#009CA5"/>
<path d="M143.926 47.8872C142.438 47.8872 140.95 47.3215 139.818 46.1822C137.548 43.9115 137.548 40.2302 139.818 37.9595L150.544 27.2335C152.815 24.9627 156.496 24.9627 158.767 27.2335C161.038 29.5042 161.038 33.1855 158.767 35.4562L148.041 46.1822C146.902 47.3137 145.414 47.8872 143.926 47.8872Z" fill="#009CA5"/>
<path d="M180.188 98.8125H165.021C161.813 98.8125 159.209 96.2085 159.209 93C159.209 89.7915 161.813 87.1875 165.021 87.1875H180.188C183.397 87.1875 186.001 89.7915 186.001 93C186.001 96.2085 183.397 98.8125 180.188 98.8125Z" fill="#009CA5"/>
<path d="M154.652 160.464C153.164 160.464 151.676 159.898 150.544 158.759L139.818 148.033C137.548 145.762 137.548 142.081 139.818 139.81C142.089 137.539 145.77 137.539 148.041 139.81L158.767 150.536C161.038 152.807 161.038 156.488 158.767 158.759C157.628 159.898 156.14 160.464 154.652 160.464Z" fill="#009CA5"/>
<path d="M31.3496 160.464C29.8616 160.464 28.3736 159.898 27.2421 158.759C24.9714 156.488 24.9714 152.807 27.2421 150.536L37.9681 139.81C40.2389 137.539 43.9201 137.539 46.1909 139.81C48.4616 142.081 48.4616 145.762 46.1909 148.033L35.4649 158.759C34.3256 159.898 32.8376 160.464 31.3496 160.464Z" fill="#009CA5"/>
<path d="M20.9793 98.8125H5.8125C2.604 98.8125 0 96.2085 0 93C0 89.7915 2.604 87.1875 5.8125 87.1875H20.9793C24.1878 87.1875 26.7918 89.7915 26.7918 93C26.7918 96.2085 24.1878 98.8125 20.9793 98.8125Z" fill="#009CA5"/>
<path d="M42.0756 47.8872C40.5876 47.8872 39.0996 47.3215 37.9681 46.1822L27.2421 35.4562C24.9714 33.1855 24.9714 29.5042 27.2421 27.2335C29.5129 24.9627 33.1941 24.9627 35.4649 27.2335L46.1909 37.9595C48.4616 40.2302 48.4616 43.9115 46.1909 46.1822C45.0439 47.3137 43.5636 47.8872 42.0756 47.8872Z" fill="#009CA5"/>
<path d="M116.25 162.75V172.438C116.25 179.878 110.127 186 102.688 186H83.3125C76.8025 186 69.75 181.04 69.75 170.19V162.75H116.25Z" fill="#009CA5"/>
<path d="M127.178 50.8401C114.468 40.5326 97.7277 36.5026 81.3752 39.9901C60.8377 44.2526 44.1752 60.9926 39.9127 81.5301C35.5727 102.61 43.4777 123.535 60.3727 136.323C64.9452 139.733 68.1227 145.003 69.2077 151.125V151.203C69.3627 151.125 69.5952 151.125 69.7502 151.125H116.25C116.405 151.125 116.483 151.125 116.638 151.203V151.125C117.723 145.235 121.21 139.81 126.558 135.625C139.655 125.24 147.25 109.74 147.25 93.0001C147.25 76.5701 139.965 61.2251 127.178 50.8401ZM122.063 96.8751C118.885 96.8751 116.25 94.2401 116.25 91.0626C116.25 79.2826 106.718 69.7501 94.9377 69.7501C91.7602 69.7501 89.1252 67.1151 89.1252 63.9376C89.1252 60.7601 91.7602 58.1251 94.9377 58.1251C113.073 58.1251 127.875 72.9276 127.875 91.0626C127.875 94.2401 125.24 96.8751 122.063 96.8751Z" fill="#009CA5"/>
<path d="M69.207 151.125H69.7495C69.5945 151.125 69.362 151.125 69.207 151.202V151.125Z" fill="#009CA5"/>
<path d="M116.637 151.125V151.202C116.482 151.125 116.405 151.125 116.25 151.125H116.637Z" fill="#009CA5"/>
</g>
<defs>
<clipPath id="clip0">
<rect width="186" height="186" fill="white"/>
</clipPath>
</defs>
</svg>
