<svg width="22" height="21" viewBox="0 0 22 21" fill="none" xmlns="http://www.w3.org/2000/svg">
<path d="M15.7911 0H5.86105C2.62921 0 0 2.55002 0 5.68451V15.3157C0 18.45 2.62921 21 5.86105 21H15.7913C19.023 21 21.6522 18.45 21.6522 15.3157V5.68451C21.6522 2.55002 19.023 0 15.7911 0V0ZM10.8261 16.242C7.56154 16.242 4.90574 13.6662 4.90574 10.5C4.90574 7.33379 7.56154 4.75797 10.8261 4.75797C14.0906 4.75797 16.7464 7.33379 16.7464 10.5C16.7464 13.6662 14.0906 16.242 10.8261 16.242ZM16.888 6.11213C15.9233 6.11213 15.1386 5.3511 15.1386 4.41543C15.1386 3.47976 15.9233 2.71857 16.888 2.71857C17.8527 2.71857 18.6376 3.47976 18.6376 4.41543C18.6376 5.3511 17.8527 6.11213 16.888 6.11213Z" fill="white"/>
<path d="M10.8268 5.98926C8.26233 5.98926 6.17578 8.0128 6.17578 10.5002C6.17578 12.9874 8.26233 15.0111 10.8268 15.0111C13.3914 15.0111 15.4778 12.9874 15.4778 10.5002C15.4778 8.0128 13.3914 5.98926 10.8268 5.98926Z" fill="white"/>
<path d="M16.8883 3.9502C16.6236 3.9502 16.4082 4.15912 16.4082 4.41579C16.4082 4.67245 16.6236 4.88138 16.8883 4.88138C17.1531 4.88138 17.3685 4.67261 17.3685 4.41579C17.3685 4.15896 17.1531 3.9502 16.8883 3.9502Z" fill="white"/>
</svg>
