<svg width="145" height="145" viewBox="0 0 145 145" fill="none" xmlns="http://www.w3.org/2000/svg">
<path d="M141.848 0H3.15227C1.41227 0 0 1.41227 0 3.15227V141.848C0 143.588 1.41227 145 3.15227 145H25.2176V34.6738C25.2176 32.9338 26.6298 31.5215 28.3698 31.5215H116.631C118.371 31.5215 119.783 32.9338 119.783 34.6738V145H141.848C143.588 145 145 143.587 145 141.847V3.15227C145 1.41227 143.588 0 141.848 0ZM62.1231 24.297C61.5052 24.9085 60.6984 25.2176 59.8914 25.2176C59.0843 25.2176 58.2775 24.9088 57.6596 24.297L53.5871 20.218L49.5146 24.297C48.2853 25.5264 46.2867 25.5264 45.0573 24.297C43.828 23.0677 43.828 21.0691 45.0573 19.8398L51.3616 13.5355C52.5909 12.3062 54.5895 12.3062 55.8189 13.5355L62.1231 19.8398C63.3524 21.0691 63.3524 23.0612 62.1231 24.297ZM99.9492 17.9925L93.6449 24.2967C93.027 24.9082 92.2202 25.2173 91.4132 25.2173C90.6061 25.2173 89.7994 24.9085 89.1814 24.2967L82.8772 17.9925C81.6479 16.7632 81.6479 14.7646 82.8772 13.5352C84.1065 12.3059 86.1051 12.3059 87.3345 13.5352L91.4135 17.6077L95.486 13.5352C96.7153 12.3059 98.7139 12.3059 99.9433 13.5352C101.172 14.7649 101.179 16.7569 99.9492 17.9925ZM129.239 81.9564C127.499 81.9564 126.087 80.5441 126.087 78.8041C126.087 77.0641 127.499 75.6521 129.239 75.6521C130.979 75.6521 132.391 77.0644 132.391 78.8044C132.391 80.5444 130.979 81.9564 129.239 81.9564ZM129.239 69.3479C127.499 69.3479 126.087 67.9356 126.087 66.1956C126.087 64.4556 127.499 63.0433 129.239 63.0433C130.979 63.0433 132.391 64.4556 132.391 66.1956C132.391 67.9356 130.979 69.3479 129.239 69.3479Z" fill="#009CA5"/>
</svg>
