<svg width="103" height="143" viewBox="0 0 103 143" fill="none" xmlns="http://www.w3.org/2000/svg">
<path d="M51.3755 0C22.9521 0 0 22.9521 0 51.3755C0 61.2858 3.1658 70.7488 7.5704 78.5254L41.0522 136.473C43.1513 140.258 47.3838 142.151 51.3755 142.151C55.3675 142.151 59.3932 140.258 61.6988 136.473L95.1806 78.5598C99.6196 70.7825 102.751 61.4916 102.751 51.4092C102.751 22.9865 79.7989 0 51.3755 0ZM51.3755 66.5507C41.0522 66.5507 32.6215 58.12 32.6215 47.7967C32.6215 37.4735 41.0522 29.0428 51.3755 29.0428C61.6988 29.0428 70.1294 37.4735 70.1294 47.7967C70.1294 58.1544 61.6988 66.5507 51.3755 66.5507Z" fill="#009CA5"/>
</svg>
