<svg width="17" height="18" viewBox="0 0 17 18" fill="none" xmlns="http://www.w3.org/2000/svg">
<path d="M16.5542 12.5025L14.1768 10.1251C13.3278 9.27607 11.8843 9.61574 11.5447 10.7195C11.29 11.4837 10.4409 11.9082 9.67676 11.7384C7.97862 11.3138 5.68613 9.10626 5.2616 7.32322C5.00688 6.55902 5.51632 5.70995 6.28048 5.45527C7.38427 5.11564 7.7239 3.67222 6.87483 2.82315L4.49744 0.445761C3.81818 -0.148587 2.7993 -0.148587 2.20495 0.445761L0.591722 2.05899C-1.02151 3.75713 0.761536 8.25719 4.75216 12.2478C8.74278 16.2384 13.2428 18.1064 14.941 16.4083L16.5542 14.795C17.1486 14.1158 17.1486 13.0969 16.5542 12.5025Z" fill="white"/>
</svg>
