<svg width="214" height="214" viewBox="0 0 214 214" fill="none" xmlns="http://www.w3.org/2000/svg">
<path d="M121.048 44H23.4136C10.5361 44 0 54.5361 0 67.4136V146.317C0 159.195 10.5361 169.731 23.4136 169.731H121.048C133.926 169.731 144.462 159.195 144.462 146.317V67.4136C144.462 54.302 133.926 44 121.048 44Z" fill="#009CA5"/>
<path d="M196.673 57.0121C195.269 57.2463 193.864 57.9487 192.693 58.6511L156.168 79.7233V134.043L192.927 155.115C199.717 159.095 208.146 156.754 212.126 149.964C213.297 147.857 213.999 145.515 213.999 142.94V70.592C213.999 61.929 205.805 54.9049 196.673 57.0121Z" fill="#009CA5"/>
</svg>
