<svg width="84" height="147" viewBox="0 0 84 147" fill="none" xmlns="http://www.w3.org/2000/svg">
<path d="M7.86205 65.196H76.0077C78.7658 65.196 81.2955 63.6681 82.5824 61.2313C83.8676 58.7895 83.6985 55.844 82.14 53.5633L47.6473 3.16346C46.4125 1.35951 44.3681 0.279567 42.1813 0.269795C39.9968 0.264465 37.9459 1.33108 36.701 3.1297L1.75344 53.5305C0.178383 55.8011 -0.00491223 58.7611 1.27758 61.2121C2.56006 63.6589 5.09661 65.196 7.86205 65.196Z" fill="#009CA5"/>
<path d="M76.0076 81.4055H7.86196C5.09651 81.4055 2.55997 82.9433 1.27748 85.3898C-0.00500926 87.8408 0.178582 90.8008 1.75334 93.0708L36.7009 143.472C37.9458 145.27 39.9967 146.337 42.1812 146.332C44.368 146.323 46.4124 145.242 47.6472 143.438L82.1399 93.0376C83.6984 90.7578 83.8675 87.8117 82.5823 85.3697C81.2954 82.9335 78.7657 81.4055 76.0076 81.4055Z" fill="#009CA5"/>
</svg>
