<svg width="25" height="18" viewBox="0 0 25 18" fill="none" xmlns="http://www.w3.org/2000/svg">
<path fill-rule="evenodd" clip-rule="evenodd" d="M24.7149 3.79488C24.7149 3.79488 24.4712 2.07716 23.7236 1.32051C22.7762 0.327877 21.7135 0.323169 21.2263 0.265007C17.7382 0.0126953 12.5059 0.0126953 12.5059 0.0126953H12.4948C12.4948 0.0126953 7.26274 0.0126953 3.77442 0.265007C3.28725 0.323169 2.2251 0.327877 1.27706 1.32051C0.529546 2.07716 0.286374 3.79488 0.286374 3.79488C0.286374 3.79488 0.0371094 5.81198 0.0371094 7.82909V9.72046C0.0371094 11.7373 0.286374 13.7544 0.286374 13.7544C0.286374 13.7544 0.529546 15.4721 1.27706 16.2288C2.2251 17.2217 3.47059 17.1898 4.02535 17.294C6.01974 17.4853 12.5004 17.5446 12.5004 17.5446C12.5004 17.5446 17.7382 17.5366 21.2263 17.2845C21.7135 17.2264 22.7762 17.2217 23.7236 16.2288C24.4712 15.4721 24.7149 13.7544 24.7149 13.7544C24.7149 13.7544 24.9636 11.7373 24.9636 9.72046V7.82909C24.9636 5.81198 24.7149 3.79488 24.7149 3.79488ZM9.92711 12.0118L9.926 5.00824L16.6611 8.52205L9.92711 12.0118Z" fill="white"/>
</svg>
