<svg width="69" height="404" viewBox="0 0 69 404" fill="none" xmlns="http://www.w3.org/2000/svg">
<path d="M54 271.3H53.4L52.5 267.7H13.5L12.6 271.3H12V260.5C12 258.62 12.22 257 12.66 255.64C13.06 254.24 13.64 253.08 14.4 252.16C15.12 251.24 15.98 250.56 16.98 250.12C17.94 249.64 18.98 249.4 20.1 249.4C20.98 249.4 21.76 249.54 22.44 249.82C23.12 250.06 23.72 250.4 24.24 250.84C24.72 251.24 25.16 251.72 25.56 252.28C25.92 252.8 26.22 253.34 26.46 253.9C27.06 255.22 27.44 256.72 27.6 258.4C27.84 255.92 28.46 253.72 29.46 251.8C29.9 250.96 30.44 250.16 31.08 249.4C31.68 248.6 32.44 247.9 33.36 247.3C34.24 246.66 35.28 246.16 36.48 245.8C37.64 245.4 38.98 245.2 40.5 245.2C42.38 245.2 44.14 245.56 45.78 246.28C47.42 247 48.86 248.04 50.1 249.4C51.3 250.72 52.26 252.32 52.98 254.2C53.66 256.08 54 258.18 54 260.5V271.3ZM28.2 262.6H52.8V260.5C52.8 259.14 52.54 257.88 52.02 256.72C51.5 255.56 50.72 254.56 49.68 253.72C48.64 252.84 47.36 252.16 45.84 251.68C44.32 251.16 42.54 250.9 40.5 250.9C38.46 250.9 36.68 251.16 35.16 251.68C33.64 252.16 32.36 252.84 31.32 253.72C30.28 254.56 29.5 255.56 28.98 256.72C28.46 257.88 28.2 259.14 28.2 260.5V262.6ZM27 262.6V260.5C26.96 258.7 26.38 257.26 25.26 256.18C24.1 255.06 22.38 254.5 20.1 254.5C17.82 254.5 16.1 255.06 14.94 256.18C13.78 257.26 13.2 258.7 13.2 260.5V262.6H27ZM26.4 229.607C26.4 230.287 26.64 230.987 27.12 231.707C27.56 232.387 28.32 233.027 29.4 233.627C30.44 234.187 31.84 234.667 33.6 235.067C35.36 235.427 37.56 235.607 40.2 235.607C42.84 235.607 45.04 235.427 46.8 235.067C48.56 234.667 49.98 234.187 51.06 233.627C52.1 233.027 52.86 232.387 53.34 231.707C53.78 230.987 54 230.287 54 229.607C54 228.927 53.78 228.247 53.34 227.567C52.86 226.847 52.1 226.207 51.06 225.647C49.98 225.047 48.56 224.567 46.8 224.207C45.04 223.807 42.84 223.607 40.2 223.607C37.56 223.607 35.36 223.807 33.6 224.207C31.84 224.567 30.44 225.047 29.4 225.647C28.32 226.207 27.56 226.847 27.12 227.567C26.64 228.247 26.4 228.927 26.4 229.607ZM25.5 229.607C25.5 228.127 25.84 226.707 26.52 225.347C27.16 223.947 28.12 222.727 29.4 221.687C30.64 220.607 32.18 219.767 34.02 219.167C35.82 218.527 37.88 218.207 40.2 218.207C42.52 218.207 44.6 218.527 46.44 219.167C48.24 219.767 49.78 220.607 51.06 221.687C52.3 222.727 53.26 223.947 53.94 225.347C54.58 226.707 54.9 228.127 54.9 229.607C54.9 231.127 54.58 232.567 53.94 233.927C53.26 235.287 52.3 236.507 51.06 237.587C49.78 238.627 48.24 239.467 46.44 240.107C44.6 240.707 42.52 241.007 40.2 241.007C37.88 241.007 35.82 240.707 34.02 240.107C32.18 239.467 30.64 238.627 29.4 237.587C28.12 236.507 27.16 235.287 26.52 233.927C25.84 232.567 25.5 231.127 25.5 229.607ZM54.9 202.623C54.9 203.903 54.74 205.003 54.42 205.923C54.14 206.843 53.8 207.583 53.4 208.143C52.96 208.823 52.46 209.383 51.9 209.823C52.5 209.983 53.06 210.323 53.58 210.843C54.1 211.323 54.44 211.783 54.6 212.223V213.123C54.08 213.083 53.54 213.043 52.98 213.003C52.5 212.963 52 212.923 51.48 212.883C50.92 212.843 50.36 212.823 49.8 212.823C49.2 212.823 48.6 212.843 48 212.883C47.4 212.923 46.86 212.963 46.38 213.003C45.82 213.043 45.26 213.083 44.7 213.123V212.223C47.58 211.463 49.8 210.303 51.36 208.743C52.92 207.183 53.7 205.343 53.7 203.223C53.7 201.543 53.18 200.183 52.14 199.143C51.1 198.063 49.82 197.523 48.3 197.523C47.22 197.523 46.28 197.903 45.48 198.663C44.68 199.383 43.96 200.303 43.32 201.423C42.64 202.543 41.98 203.743 41.34 205.023C40.7 206.303 39.98 207.503 39.18 208.623C38.38 209.743 37.44 210.683 36.36 211.443C35.28 212.163 33.96 212.523 32.4 212.523C31.52 212.523 30.66 212.323 29.82 211.923C28.98 211.523 28.24 210.983 27.6 210.303C26.96 209.583 26.46 208.723 26.1 207.723C25.7 206.723 25.5 205.623 25.5 204.423C25.5 203.383 25.66 202.483 25.98 201.723C26.3 200.923 26.64 200.243 27 199.683C27.44 199.083 27.94 198.563 28.5 198.123C27.9 197.963 27.34 197.643 26.82 197.163C26.3 196.643 25.96 196.163 25.8 195.723V194.823C26.32 194.903 26.86 194.963 27.42 195.003C27.9 195.043 28.42 195.083 28.98 195.123C29.54 195.123 30.08 195.123 30.6 195.123C31.2 195.123 31.82 195.123 32.46 195.123C33.06 195.083 33.6 195.043 34.08 195.003C34.64 194.963 35.18 194.903 35.7 194.823V195.723C32.82 196.483 30.6 197.603 29.04 199.083C27.48 200.563 26.7 202.143 26.7 203.823C26.7 205.183 27.16 206.323 28.08 207.243C28.96 208.163 30 208.623 31.2 208.623C32.2 208.623 33.06 208.243 33.78 207.483C34.5 206.723 35.18 205.783 35.82 204.663C36.42 203.543 37.04 202.323 37.68 201.003C38.32 199.643 39.06 198.403 39.9 197.283C40.74 196.163 41.74 195.223 42.9 194.463C44.06 193.703 45.46 193.323 47.1 193.323C48.06 193.323 49.02 193.563 49.98 194.043C50.9 194.483 51.74 195.123 52.5 195.963C53.22 196.763 53.8 197.743 54.24 198.903C54.68 200.023 54.9 201.263 54.9 202.623ZM52.5 185.807H13.5L12.6 189.407H12V181.007H30C29.2 180.607 28.46 180.067 27.78 179.387C27.22 178.827 26.7 178.107 26.22 177.227C25.74 176.347 25.5 175.307 25.5 174.107C25.5 172.907 25.72 171.807 26.16 170.807C26.6 169.767 27.22 168.867 28.02 168.107C28.78 167.347 29.72 166.767 30.84 166.367C31.92 165.927 33.14 165.707 34.5 165.707H52.5L53.4 162.107H54V173.807H53.4L52.5 170.507H34.5C31.66 170.507 29.66 170.967 28.5 171.887C27.3 172.767 26.7 173.807 26.7 175.007C26.7 176.007 26.98 176.867 27.54 177.587C28.1 178.307 28.72 178.927 29.4 179.447C30.2 180.047 31.1 180.567 32.1 181.007H52.5L53.4 177.707H54V189.407H53.4L52.5 185.807ZM54.9 133.307C54.9 134.587 54.74 135.687 54.42 136.607C54.14 137.527 53.8 138.267 53.4 138.827C52.96 139.507 52.46 140.067 51.9 140.507C52.5 140.667 53.06 141.007 53.58 141.527C54.1 142.007 54.44 142.467 54.6 142.907V143.807C54.08 143.767 53.54 143.727 52.98 143.687C52.5 143.647 52 143.607 51.48 143.567C50.92 143.527 50.36 143.507 49.8 143.507C49.2 143.507 48.6 143.527 48 143.567C47.4 143.607 46.86 143.647 46.38 143.687C45.82 143.727 45.26 143.767 44.7 143.807V142.907C47.58 142.147 49.8 140.987 51.36 139.427C52.92 137.867 53.7 136.027 53.7 133.907C53.7 132.227 53.18 130.867 52.14 129.827C51.1 128.747 49.82 128.207 48.3 128.207C47.22 128.207 46.28 128.587 45.48 129.347C44.68 130.067 43.96 130.987 43.32 132.107C42.64 133.227 41.98 134.427 41.34 135.707C40.7 136.987 39.98 138.187 39.18 139.307C38.38 140.427 37.44 141.367 36.36 142.127C35.28 142.847 33.96 143.207 32.4 143.207C31.52 143.207 30.66 143.007 29.82 142.607C28.98 142.207 28.24 141.667 27.6 140.987C26.96 140.267 26.46 139.407 26.1 138.407C25.7 137.407 25.5 136.307 25.5 135.107C25.5 134.067 25.66 133.167 25.98 132.407C26.3 131.607 26.64 130.927 27 130.367C27.44 129.767 27.94 129.247 28.5 128.807C27.9 128.647 27.34 128.327 26.82 127.847C26.3 127.327 25.96 126.847 25.8 126.407V125.507C26.32 125.587 26.86 125.647 27.42 125.687C27.9 125.727 28.42 125.767 28.98 125.807C29.54 125.807 30.08 125.807 30.6 125.807C31.2 125.807 31.82 125.807 32.46 125.807C33.06 125.767 33.6 125.727 34.08 125.687C34.64 125.647 35.18 125.587 35.7 125.507V126.407C32.82 127.167 30.6 128.287 29.04 129.767C27.48 131.247 26.7 132.827 26.7 134.507C26.7 135.867 27.16 137.007 28.08 137.927C28.96 138.847 30 139.307 31.2 139.307C32.2 139.307 33.06 138.927 33.78 138.167C34.5 137.407 35.18 136.467 35.82 135.347C36.42 134.227 37.04 133.007 37.68 131.687C38.32 130.327 39.06 129.087 39.9 127.967C40.74 126.847 41.74 125.907 42.9 125.147C44.06 124.387 45.46 124.007 47.1 124.007C48.06 124.007 49.02 124.247 49.98 124.727C50.9 125.167 51.74 125.807 52.5 126.647C53.22 127.447 53.8 128.427 54.24 129.587C54.68 130.707 54.9 131.947 54.9 133.307ZM39.3 103.891C39.3 107.371 40.08 109.951 41.64 111.631C43.16 113.271 45.28 114.091 48 114.091C49.8 114.091 51.2 113.651 52.2 112.771C53.2 111.891 53.7 110.931 53.7 109.891C53.7 108.931 53.42 108.091 52.86 107.371C52.3 106.611 51.68 105.971 51 105.451C50.24 104.851 49.34 104.331 48.3 103.891H39.3ZM26.4 108.391C26.4 109.591 26.82 110.591 27.66 111.391C28.46 112.191 29.54 112.591 30.9 112.591C31.22 112.591 31.5 112.591 31.74 112.591C31.98 112.551 32.2 112.511 32.4 112.471C32.6 112.431 32.8 112.371 33 112.291L34.2 117.091C34.08 117.171 33.92 117.231 33.72 117.271C33.52 117.311 33.3 117.351 33.06 117.391C32.82 117.391 32.5 117.391 32.1 117.391C31.26 117.391 30.46 117.191 29.7 116.791C28.9 116.391 28.2 115.811 27.6 115.051C26.96 114.251 26.46 113.311 26.1 112.231C25.7 111.111 25.5 109.831 25.5 108.391C25.5 105.511 26.32 103.251 27.96 101.611C29.6 99.9306 31.78 99.0906 34.5 99.0906H52.5L53.4 95.4906H54L54 103.891H50.4C51.24 104.331 52 104.891 52.68 105.571C53.24 106.131 53.74 106.851 54.18 107.731C54.66 108.571 54.9 109.591 54.9 110.791C54.9 113.671 54.22 115.851 52.86 117.331C51.5 118.771 49.68 119.491 47.4 119.491C46.28 119.491 45.16 119.191 44.04 118.591C42.92 117.951 41.92 117.011 41.04 115.771C40.16 114.491 39.46 112.871 38.94 110.911C38.38 108.951 38.1 106.611 38.1 103.891H34.5C31.5 103.891 29.4 104.351 28.2 105.271C27 106.151 26.4 107.191 26.4 108.391ZM52.5 89.1859H13.5L12.6 92.7859H12L12 84.3859H30C29.2 83.9859 28.46 83.4459 27.78 82.7659C27.22 82.2059 26.7 81.4859 26.22 80.6059C25.74 79.7259 25.5 78.6859 25.5 77.4859C25.5 76.2859 25.72 75.1859 26.16 74.1859C26.6 73.1459 27.22 72.2459 28.02 71.4859C28.78 70.7259 29.72 70.1459 30.84 69.7459C31.92 69.3059 33.14 69.0859 34.5 69.0859H52.5L53.4 65.4859H54V77.1859H53.4L52.5 73.8859H34.5C31.66 73.8859 29.66 74.3459 28.5 75.2659C27.3 76.1459 26.7 77.1859 26.7 78.3859C26.7 79.3859 26.98 80.2459 27.54 80.9659C28.1 81.6859 28.72 82.3059 29.4 82.8259C30.2 83.4259 31.1 83.9459 32.1 84.3859H52.5L53.4 81.0859H54V92.7859H53.4L52.5 89.1859ZM52.5 58.3H27.9L27 61.9H26.4V53.5H52.5L53.4 49.9H54V61.9H53.4L52.5 58.3ZM19.5 53.2C20.26 53.2 20.96 53.52 21.6 54.16C22.2 54.76 22.5 55.44 22.5 56.2C22.5 56.96 22.2 57.66 21.6 58.3C20.96 58.9 20.26 59.2 19.5 59.2C18.74 59.2 18.06 58.9 17.46 58.3C16.82 57.66 16.5 56.96 16.5 56.2C16.5 55.44 16.82 54.76 17.46 54.16C18.06 53.52 18.74 53.2 19.5 53.2ZM17.1 26.8141C17.78 26.8141 18.4 26.9341 18.96 27.1741C19.48 27.3741 19.94 27.6141 20.34 27.8941C20.78 28.2141 21.2 28.5541 21.6 28.9141L19.8 33.4141C19.4 33.0541 18.98 32.7141 18.54 32.3941C18.14 32.1141 17.68 31.8741 17.16 31.6741C16.6 31.4341 15.98 31.3141 15.3 31.3141C14.26 31.3141 13.46 31.5941 12.9 32.1541C12.3 32.6741 12 33.3941 12 34.3141C12 34.7541 12.12 35.1741 12.36 35.5741C12.56 35.9741 12.94 36.3341 13.5 36.6541C14.02 36.9341 14.74 37.1741 15.66 37.3741C16.58 37.5341 17.76 37.6141 19.2 37.6141H26.4V29.2141H27.6V37.6141H52.5L53.4 34.0141H54V46.0141H53.4L52.5 42.4141H27.6V46.0141H26.4V42.4141H19.2C16.8 42.4141 14.86 41.6741 13.38 40.1941C11.86 38.6741 11.1 36.7141 11.1 34.3141C11.1 33.1941 11.28 32.1741 11.64 31.2541C11.96 30.3341 12.4 29.5541 12.96 28.9141C13.52 28.2341 14.16 27.7141 14.88 27.3541C15.6 26.9941 16.34 26.8141 17.1 26.8141ZM39.3 10.6094C39.3 14.0894 40.08 16.6694 41.64 18.3494C43.16 19.9894 45.28 20.8094 48 20.8094C49.8 20.8094 51.2 20.3694 52.2 19.4894C53.2 18.6094 53.7 17.6494 53.7 16.6094C53.7 15.6494 53.42 14.8094 52.86 14.0894C52.3 13.3294 51.68 12.6894 51 12.1694C50.24 11.5694 49.34 11.0494 48.3 10.6094H39.3ZM26.4 15.1094C26.4 16.3094 26.82 17.3094 27.66 18.1094C28.46 18.9094 29.54 19.3094 30.9 19.3094C31.22 19.3094 31.5 19.3094 31.74 19.3094C31.98 19.2694 32.2 19.2294 32.4 19.1894C32.6 19.1494 32.8 19.0894 33 19.0094L34.2 23.8094C34.08 23.8894 33.92 23.9494 33.72 23.9894C33.52 24.0294 33.3 24.0694 33.06 24.1094C32.82 24.1094 32.5 24.1094 32.1 24.1094C31.26 24.1094 30.46 23.9094 29.7 23.5094C28.9 23.1094 28.2 22.5294 27.6 21.7694C26.96 20.9694 26.46 20.0294 26.1 18.9494C25.7 17.8294 25.5 16.5494 25.5 15.1094C25.5 12.2294 26.32 9.96937 27.96 8.32937C29.6 6.64937 31.78 5.80937 34.5 5.80937H52.5L53.4 2.20937H54V10.6094H50.4C51.24 11.0494 52 11.6094 52.68 12.2894C53.24 12.8494 53.74 13.5694 54.18 14.4494C54.66 15.2894 54.9 16.3094 54.9 17.5094C54.9 20.3894 54.22 22.5694 52.86 24.0494C51.5 25.4894 49.68 26.2094 47.4 26.2094C46.28 26.2094 45.16 25.9094 44.04 25.3094C42.92 24.6694 41.92 23.7294 41.04 22.4894C40.16 21.2094 39.46 19.5894 38.94 17.6294C38.38 15.6694 38.1 13.3294 38.1 10.6094H34.5C31.5 10.6094 29.4 11.0694 28.2 11.9894C27 12.8694 26.4 13.9094 26.4 15.1094Z" fill="#DDDDDD"/>
<path d="M36 304L36 404" stroke="#DDDDDD"/>
</svg>
