<svg width="32" height="32" viewBox="0 0 32 32" fill="none" xmlns="http://www.w3.org/2000/svg">
<path d="M3 3.71812V28.2806C3.00016 28.3339 3.01606 28.386 3.04569 28.4303C3.07532 28.4746 3.11737 28.5091 3.16656 28.5296C3.21575 28.5501 3.2699 28.5556 3.32222 28.5455C3.37453 28.5353 3.42268 28.5099 3.46062 28.4725L16.25 16L3.46062 3.52625C3.42268 3.48883 3.37453 3.46346 3.32222 3.4533C3.2699 3.44314 3.21575 3.44865 3.16656 3.46914C3.11737 3.48963 3.07532 3.52419 3.04569 3.56848C3.01606 3.61278 3.00016 3.66483 3 3.71812Z" fill="white"/>
<path d="M21.6125 10.875L5.57621 2.04L5.56621 2.03438C5.28996 1.88438 5.02746 2.25813 5.25371 2.47563L17.8243 14.4956L21.6125 10.875Z" fill="white"/>
<path d="M5.25444 29.5244C5.02694 29.7419 5.28944 30.1156 5.56694 29.9656L5.57694 29.96L21.6119 21.125L17.8238 17.5031L5.25444 29.5244Z" fill="white"/>
<path d="M28.0872 14.4375L23.6091 11.9713L19.3984 16L23.6091 20.0269L28.0872 17.5625C29.3053 16.8894 29.3053 15.1106 28.0872 14.4375Z" fill="white"/>
</svg>
