<svg width="14" height="12" viewBox="0 0 14 12" fill="none" xmlns="http://www.w3.org/2000/svg">
<path d="M13.4173 0.750006C12.8587 1.14403 12.2402 1.4454 11.5856 1.64251C11.2343 1.23855 10.7674 0.952243 10.2481 0.822297C9.72874 0.69235 9.18202 0.725037 8.68186 0.915938C8.1817 1.10684 7.75224 1.44674 7.45156 1.88967C7.15087 2.33261 6.99347 2.8572 7.00065 3.39251V3.97584C5.97552 4.00242 4.95973 3.77506 4.04374 3.31402C3.12775 2.85297 2.34 2.17254 1.75065 1.33334C1.75065 1.33334 -0.582682 6.58334 4.66732 8.91667C3.46596 9.73215 2.03483 10.141 0.583984 10.0833C5.83398 13 12.2506 10.0833 12.2506 3.37501C12.2501 3.21252 12.2345 3.05044 12.204 2.89084C12.7993 2.30371 13.2195 1.56242 13.4173 0.750006Z" fill="#101010"/>
</svg>
