<svg width="26" height="19" viewBox="0 0 26 19" fill="none" xmlns="http://www.w3.org/2000/svg">
<path d="M20.6042 8.05005C20.6042 7.61505 20.7492 7.18005 20.7492 6.60005C20.7492 3.41005 18.1392 0.800049 14.9492 0.800049C12.6292 0.800049 10.7442 2.10505 9.72922 3.99005C9.43922 3.84505 8.85922 3.70005 8.42422 3.70005C6.39422 3.70005 4.79922 5.29505 4.79922 7.32505C4.79922 7.61505 4.79922 7.90505 4.94422 8.05005C2.33422 8.48505 0.449219 10.515 0.449219 13.125C0.449219 15.88 2.76922 18.2 5.52422 18.2H20.0242C22.7792 18.2 25.0992 15.88 25.0992 13.125C25.0992 10.515 23.2142 8.34005 20.6042 8.05005Z" fill="white"/>
</svg>
